SplineFontDB: 3.0
FontName: FabrikBlack
FullName: FabrikBlack
FamilyName: FabrikBlack
Weight: Black
Copyright: OFL Open Font License
Version: Version 1.5 (20.02.2010)
DefaultBaseFilename: fabrik_k
ItalicAngle: 0
UnderlinePosition: -125
UnderlineWidth: 50
Ascent: 800
Descent: 200
LayerCount: 2
Layer: 0 1 "Back" 
Layer: 1 1 "Fore" 
XUID: [1021 639 1133821918 122321]
UniqueID: 4254278
FSType: 0
OS2Version: 0
OS2_WeightWidthSlopeOnly: 0
OS2_UseTypoMetrics: 0
CreationTime: 1256911458
ModificationTime: 1266667873
PfmFamily: 33
TTFWeight: 700
TTFWidth: 5
LineGap: 90
VLineGap: 90
OS2TypoAscent: 0
OS2TypoAOffset: 1
OS2TypoDescent: 0
OS2TypoDOffset: 1
OS2TypoLinegap: 90
OS2WinAscent: 0
OS2WinAOffset: 1
OS2WinDescent: 0
OS2WinDOffset: 1
HheadAscent: 0
HheadAOffset: 1
HheadDescent: 0
HheadDOffset: 1
OS2Vendor: 'PfEd'
Lookup: 4 0 1 "'liga' Standard Ligatures in Latin lookup 0"  {"'liga' Standard Ligatures in Latin lookup 0 subtable"  } ['liga' ('latn' <'dflt' > ) ]
Lookup: 4 0 0 "'dlig' optionale Ligaturen in Latin lookup 1"  {"'dlig' optionale Ligaturen in Latin lookup 1 subtable"  } ['dlig' ('latn' <'dflt' > ) ]
Lookup: 258 0 0 "'kern' Horizontales Kerning in Latin lookup 0"  {"'kern' Horizontales Kerning in Latin lookup 0 subtable"  } ['kern' ('latn' <'dflt' > ) ]
DEI: 0
LangName: 1033 
Encoding: Custom
UnicodeInterp: none
NameList: Adobe Glyph List
DisplaySize: -24
AntiAlias: 1
FitToEm: 1
WinInfo: 0 32 16
BeginPrivate: 7
BlueValues 32 [-13 1 419 433 686 718 748 748 ]
OtherBlues 12 [-205 -187 ]
StdHW 4 [86]
StemSnapH 32 [20 67 77 81 86 91 444 455 467 ]
StdVW 4 [91]
StemSnapV 11 [84 91 96 ]
BlueScale 9 0.0309375
EndPrivate
TeXData: 1 0 0 368050 184025 122683 429916 1048576 122683 783286 444596 497025 792723 393216 433062 380633 303038 157286 324010 404750 52429 2506097 1059062 262144
BeginChars: 327 182

StartChar: .notdef
Encoding: 0 -1 0
AltUni2: 00fffd.ffffffff.0
Width: 500
HStem: 0 50<100 400> 483 50<100 400>
VStem: 50 50<50 483> 400 50<50 483>
LayerCount: 2
Fore
SplineSet
40.5 538 m 1,0,-1
 40.5 542.5 l 1,1,-1
 45 542.5 l 1,2,-1
 50 542.5 l 1,3,-1
 450 542.5 l 1,4,-1
 455 542.5 l 1,5,-1
 459.5 542.5 l 1,6,-1
 459.5 538 l 1,7,-1
 459.5 533 l 1,8,-1
 459.5 -3.0598e-07 l 1,9,-1
 459.5 -5 l 1,10,-1
 459.5 -9.5 l 1,11,-1
 455 -9.5 l 1,12,-1
 450 -9.5 l 1,13,-1
 50 -9.5 l 1,14,-1
 45 -9.5 l 1,15,-1
 40.5 -9.5 l 1,16,-1
 40.5 -5 l 1,17,-1
 40.5 -3.0598e-07 l 1,18,-1
 40.5 533 l 1,19,-1
 40.5 538 l 1,0,-1
109.5 59.5 m 1,20,-1
 390.5 59.5 l 1,21,-1
 390.5 473.5 l 1,22,-1
 109.5 473.5 l 1,23,-1
 109.5 59.5 l 1,20,-1
EndSplineSet
EndChar

StartChar: exclam
Encoding: 33 33 4
Width: 218
Flags: W
HStem: 0 21G<102.665 117.335> 673 20G<74 155>
VStem: 74 81<252 693>
LayerCount: 2
Fore
SplineSet
64.4984 702.5 m 1,0,-1
 164.5 702.5 l 1,1,-1
 164.5 242.5 l 1,2,-1
 63.5019 242.5 l 1,3,-1
 64.4984 702.5 l 1,0,-1
110 -9.5 m 128,-1,5
 84.388 -9.5 84.388 -9.5 63.444 9.11695 c 128,-1,6
 42.5 27.7339 42.5 27.7339 42.5 59.5118 c 128,-1,7
 42.5 91.3104 42.5 91.3104 63.4655 109.655 c 128,-1,8
 84.4311 128 84.4311 128 110 128 c 128,-1,9
 135.388 128 135.388 128 156.444 110.751 c 128,-1,10
 177.5 93.503 177.5 93.503 177.5 61.0878 c 128,-1,11
 177.5 28.8238 177.5 28.8238 156.6 9.6619 c 128,-1,4
 135.699 -9.5 135.699 -9.5 110 -9.5 c 128,-1,5
EndSplineSet
EndChar

StartChar: quotedbl
Encoding: 34 34 5
Width: 340
Flags: W
HStem: 558 197.5<248 256.5>
LayerCount: 2
Fore
SplineSet
238.743 555.864 m 2,0,1
 235.91 568.146 235.91 568.146 213.205 624.782 c 128,-1,2
 190.5 681.418 190.5 681.418 190.5 705.5 c 128,-1,3
 190.5 729.582 190.5 729.582 210.969 747.291 c 128,-1,4
 231.437 765 231.437 765 256.486 765 c 128,-1,5
 281.49 765 281.49 765 302.495 747.198 c 128,-1,6
 323.5 729.397 323.5 729.397 323.5 696 c 1,7,8
 314.416 636.786 314.416 636.786 272.783 577.553 c 0,9,10
 258.966 557.812 258.966 557.812 256.146 553.112 c 2,11,-1
 244.035 532.925 l 1,12,-1
 238.743 555.864 l 2,0,1
64.7431 555.865 m 2,13,14
 61.9093 568.149 61.9093 568.149 39.2047 624.784 c 128,-1,15
 16.5 681.419 16.5 681.419 16.5 705.5 c 128,-1,16
 16.5 729.58 16.5 729.58 36.9688 747.29 c 128,-1,17
 57.4376 765 57.4376 765 82.4858 765 c 128,-1,18
 107.49 765 107.49 765 128.495 747.198 c 128,-1,19
 149.5 729.397 149.5 729.397 149.5 696 c 1,20,21
 140.415 636.783 140.415 636.783 98.7828 577.553 c 0,22,23
 84.9726 557.823 84.9726 557.823 82.1462 553.112 c 2,24,-1
 70.0344 532.926 l 1,25,-1
 64.7431 555.865 l 2,13,14
EndSplineSet
EndChar

StartChar: numbersign
Encoding: 35 35 6
Width: 455
Flags: W
HStem: 219 87<47 105 182 272 350 408> 389 91<47 105 182 272 350 408>
VStem: 105 77<70 219 306 389 480 620> 272 78<70 219 306 389 480 620>
LayerCount: 2
Fore
SplineSet
95.5 629.5 m 1,0,-1
 191.5 629.5 l 1,1,-1
 191.5 489.5 l 1,2,-1
 262.5 489.5 l 1,3,-1
 262.5 629.5 l 1,4,-1
 359.5 629.5 l 1,5,-1
 359.5 489.5 l 1,6,-1
 417.5 489.5 l 1,7,-1
 417.5 379.5 l 1,8,-1
 359.5 379.5 l 1,9,-1
 359.5 315.5 l 1,10,-1
 417.5 315.5 l 1,11,-1
 417.5 209.5 l 1,12,-1
 359.5 209.5 l 1,13,-1
 359.5 60.5 l 1,14,-1
 262.5 60.5 l 1,15,-1
 262.5 209.5 l 1,16,-1
 191.5 209.5 l 1,17,-1
 191.5 60.5 l 1,18,-1
 95.5 60.5 l 1,19,-1
 95.5 209.5 l 1,20,-1
 37.5 209.5 l 1,21,-1
 37.5 315.5 l 1,22,-1
 95.5 315.5 l 1,23,-1
 95.5 380.5 l 1,24,-1
 37.5 380.5 l 1,25,-1
 37.5 489.5 l 1,26,-1
 95.5 489.5 l 1,27,-1
 95.5 629.5 l 1,0,-1
191.5 379.5 m 1,28,-1
 191.5 315.5 l 1,29,-1
 262.5 315.5 l 1,30,-1
 262.5 379.5 l 1,31,-1
 191.5 379.5 l 1,28,-1
EndSplineSet
EndChar

StartChar: dollar
Encoding: 36 36 7
Width: 733
Flags: W
VStem: 169.48 398.28<111 237>
LayerCount: 2
Fore
SplineSet
469.014 564.448 m 1,0,1
 428.493 600.655 428.493 600.655 371.446 600.655 c 0,2,3
 346.359 600.655 346.359 600.655 319.971 586.219 c 128,-1,4
 293.584 571.784 293.584 571.784 281.945 532.377 c 1,5,6
 282.045 531.763 282.045 531.763 282.045 519.505 c 0,7,8
 282.045 483.09 282.045 483.09 329.345 451.345 c 0,9,10
 357.617 432.37 357.617 432.37 396.323 419.5 c 128,-1,11
 435.03 406.629 435.03 406.629 443.7 404.763 c 0,12,13
 491.814 394.405 491.814 394.405 542.026 336.943 c 0,14,15
 577.256 296.625 577.256 296.625 577.256 237.134 c 0,16,17
 577.256 155.481 577.256 155.481 533.144 99.825 c 128,-1,18
 489.033 44.1689 489.033 44.1689 413.275 23.8605 c 1,19,-1
 421.564 -39.5 l 1,20,-1
 325.235 -39.5 l 1,21,-1
 332.271 17.9527 l 1,22,23
 245.902 17.9527 245.902 17.9527 157.444 109.16 c 1,24,-1
 207.497 195.781 l 1,25,26
 274.82 118.393 274.82 118.393 355.555 118.393 c 0,27,28
 418.235 118.393 418.235 118.393 459.336 177.794 c 1,29,30
 472.585 205.273 472.585 205.273 472.585 224.429 c 128,-1,31
 472.585 243.762 472.585 243.762 466.459 257.357 c 0,32,33
 449.525 294.939 449.525 294.939 404.405 312.1 c 0,34,35
 389.991 317.582 389.991 317.582 367.804 324.566 c 0,36,37
 266.93 356.315 266.93 356.315 222.906 405.919 c 128,-1,38
 178.882 455.523 178.882 455.523 178.882 528.431 c 128,-1,39
 178.882 601.338 178.882 601.338 224.151 640.225 c 128,-1,40
 269.42 679.112 269.42 679.112 332.762 689.907 c 1,41,-1
 319.498 759.5 l 1,42,-1
 417.078 759.5 l 1,43,-1
 405.082 691.347 l 1,44,45
 473.783 691.347 473.783 691.347 519.783 641.447 c 1,46,-1
 469.014 564.448 l 1,0,1
EndSplineSet
EndChar

StartChar: percent
Encoding: 37 37 8
Width: 560
Flags: W
HStem: 515 57<129.166 168.989>
VStem: 40 67<449.51 494.014> 190 69<449.716 495.66> 304 67<137.599 183.607> 454 70<138.51 184.529>
LayerCount: 2
Fore
SplineSet
148.874 438.248 m 128,-1,1
 156.764 438.248 156.764 438.248 168.632 444.907 c 128,-1,2
 180.5 451.566 180.5 451.566 180.5 470.515 c 128,-1,3
 180.5 489.464 180.5 489.464 170.57 497.482 c 128,-1,4
 160.639 505.5 160.639 505.5 148.62 505.5 c 128,-1,5
 136.6 505.5 136.6 505.5 126.55 496.611 c 128,-1,6
 116.5 487.722 116.5 487.722 116.5 469.677 c 128,-1,7
 116.5 451.631 116.5 451.631 128.716 444.94 c 128,-1,0
 140.932 438.248 140.932 438.248 148.874 438.248 c 128,-1,1
149.5 581.5 m 0,8,9
 215.41 581.5 215.41 581.5 250.904 528.271 c 0,10,11
 268.5 501.882 268.5 501.882 268.5 469.019 c 0,12,13
 268.5 434.222 268.5 434.222 251.001 406.879 c 128,-1,14
 233.542 379.598 233.542 379.598 206.608 366.683 c 0,15,16
 180.156 354 180.156 354 149.5 354 c 128,-1,17
 118.99 354 118.99 354 92.6808 365.552 c 0,18,19
 65.509 377.482 65.509 377.482 47.9538 405.45 c 128,-1,20
 30.5 433.256 30.5 433.256 30.5 471.977 c 0,21,22
 30.5 508.881 30.5 508.881 48.0958 535.27 c 0,23,24
 78.9201 581.5 78.9201 581.5 149.5 581.5 c 0,8,9
413.13 194.126 m 128,-1,26
 405.08 194.126 405.08 194.126 392.79 187.69 c 128,-1,27
 380.5 181.254 380.5 181.254 380.5 160.501 c 128,-1,28
 380.5 139.747 380.5 139.747 396.408 131.415 c 0,29,30
 404.603 127.123 404.603 127.123 412.607 127.123 c 128,-1,31
 420.542 127.123 420.542 127.123 432.521 133.844 c 128,-1,32
 444.5 140.566 444.5 140.566 444.5 161.435 c 128,-1,33
 444.5 182.19 444.5 182.19 429.168 190.045 c 0,34,25
 421.202 194.126 421.202 194.126 413.13 194.126 c 128,-1,26
413.5 270 m 0,35,36
 478.043 270 478.043 270 515.275 216.958 c 0,37,38
 533.5 190.997 533.5 190.997 533.5 157 c 0,39,40
 533.5 122.094 533.5 122.094 515.379 95.1925 c 0,41,42
 497.487 68.6303 497.487 68.6303 470.75 55.254 c 0,43,44
 444.259 42 444.259 42 413.5 42 c 0,45,46
 382.964 42 382.964 42 357.116 53.5803 c 0,47,48
 330.551 65.4821 330.551 65.4821 312.524 93.3388 c 128,-1,49
 294.5 121.191 294.5 121.191 294.5 160 c 0,50,51
 294.5 197.944 294.5 197.944 312.672 224.381 c 0,52,53
 344.029 270 344.029 270 413.5 270 c 0,35,36
462.002 572.671 m 1,54,-1
 532.211 499.998 l 1,55,-1
 85.9985 38.3287 l 1,56,-1
 15.7893 111.002 l 1,57,-1
 462.002 572.671 l 1,54,-1
EndSplineSet
EndChar

StartChar: ampersand
Encoding: 38 38 9
Width: 520
Flags: W
HStem: -8.28999 82.34<177.212 273.57> 325.99 84.52<208.917 372.97 455.78 510.44> 545.43 86.07<229.344 293.592>
VStem: 8.99004 83.2401<172.385 248.768> 95.12 87.59<444.055 502.63> 372.97 82.81<167.265 357.409>
LayerCount: 2
Fore
SplineSet
321.397 491.756 m 1,0,1
 300.511 534.317 300.511 534.317 264.962 534.317 c 128,-1,2
 229.413 534.317 229.413 534.317 210.811 517.838 c 128,-1,3
 192.21 501.358 192.21 501.358 192.21 477.784 c 128,-1,4
 192.21 454.211 192.21 454.211 200.743 436.855 c 128,-1,5
 209.277 419.5 209.277 419.5 244.81 419.5 c 2,6,-1
 519.94 419.5 l 1,7,-1
 519.94 316.49 l 1,8,-1
 465.297 316.49 l 1,9,10
 465.44 236.894 465.44 236.894 465.44 209.11 c 0,11,12
 465.44 151.475 465.44 151.475 433.025 95.857 c 0,13,14
 401.037 40.971 401.037 40.971 345.798 11.4765 c 0,15,16
 290.986 -17.79 290.986 -17.79 228.865 -17.79 c 128,-1,17
 166.624 -17.79 166.624 -17.79 115.113 13.0734 c 128,-1,18
 63.7084 43.8734 63.7084 43.8734 31.5992 97.1492 c 128,-1,19
 -0.509959 150.425 -0.509959 150.425 -0.509959 210.962 c 128,-1,20
 -0.509959 271.5 -0.509959 271.5 27.1975 323.631 c 128,-1,21
 54.905 375.762 54.905 375.762 98.4283 406.322 c 1,22,23
 85.62 436.468 85.62 436.468 85.62 460.84 c 0,24,25
 85.62 549.836 85.62 549.836 148.459 601.754 c 0,26,27
 195.96 641 195.96 641 254.14 641 c 0,28,29
 292.344 641 292.344 641 330.79 623.999 c 0,30,31
 371.055 606.033 371.055 606.033 397.052 567.558 c 1,32,-1
 321.397 491.756 l 1,0,1
363.47 316.49 m 1,33,-1
 150.28 316.49 l 2,34,35
 135.804 316.49 135.804 316.49 118.767 281.486 c 128,-1,36
 101.73 246.481 101.73 246.481 101.73 208.314 c 128,-1,37
 101.73 170.147 101.73 170.147 125.367 139.219 c 0,38,39
 167.913 83.55 167.913 83.55 233.27 83.55 c 0,40,41
 276.551 83.55 276.551 83.55 308.167 107.829 c 128,-1,42
 339.783 132.109 339.783 132.109 351.628 161.314 c 128,-1,43
 363.474 190.52 363.474 190.52 363.474 207.953 c 0,44,-1
 363.47 316.49 l 1,33,-1
EndSplineSet
EndChar

StartChar: quotesingle
Encoding: 169 39 10
Width: 154
Flags: W
HStem: 459.69 224.81<73.5908 76>
VStem: 10.5 131<570.526 658.343>
LayerCount: 2
Fore
SplineSet
73.5908 459.69 m 1,0,1
 10.5 546.029 10.5 546.029 10.5 619 c 0,2,3
 10.5 649.264 10.5 649.264 30.9424 666.882 c 128,-1,4
 51.3857 684.5 51.3857 684.5 76 684.5 c 128,-1,5
 100.426 684.5 100.426 684.5 120.963 667.483 c 128,-1,6
 141.5 650.465 141.5 650.465 141.5 615.709 c 128,-1,7
 141.5 580.953 141.5 580.953 121.082 537.869 c 0,8,9
 99.4258 492.035 99.4258 492.035 73.5908 459.69 c 1,0,1
EndSplineSet
EndChar

StartChar: parenleft
Encoding: 40 40 11
Width: 268
Flags: W
VStem: 40 94<54.01 567.19>
LayerCount: 2
Fore
SplineSet
143.5 148 m 1,0,1
 143.5 36.3963 143.5 36.3963 237.5 -18.6855 c 1,2,-1
 237.5 -151.112 l 1,3,4
 156.323 -114.759 156.323 -114.759 93.4114 -39.3948 c 128,-1,5
 30.5 35.9696 30.5 35.9696 30.5 148 c 2,6,-1
 30.5 502 l 2,7,8
 30.5 600.349 30.5 600.349 92.536 678.823 c 0,9,10
 156.101 759.23 156.101 759.23 238.5 791.5 c 1,11,-1
 238.5 666.858 l 1,12,13
 143.5 607.402 143.5 607.402 143.5 505 c 1,14,-1
 143.5 148 l 1,0,1
EndSplineSet
EndChar

StartChar: parenright
Encoding: 41 41 12
Width: 295
Flags: W
VStem: 147 95<62.471 571>
LayerCount: 2
Fore
SplineSet
137.5 507 m 1,0,1
 137.5 610.069 137.5 610.069 43.5 669.902 c 1,2,-1
 43.5 791.5 l 1,3,4
 134.955 753.914 134.955 753.914 193.227 680.604 c 128,-1,5
 251.5 607.294 251.5 607.294 251.5 505 c 2,6,-1
 251.5 150 l 2,7,8
 251.5 45.8643 251.5 45.8643 193.215 -30.3574 c 0,9,10
 133.029 -109.177 133.029 -109.177 43.5 -149.05 c 1,11,-1
 43.5 -16.7322 l 1,12,13
 137.5 39.3208 137.5 39.3208 137.5 150 c 1,14,-1
 137.5 507 l 1,0,1
EndSplineSet
EndChar

StartChar: asterisk
Encoding: 42 42 13
Width: 212
Flags: W
HStem: 370.237 7.6<385.52 392.786 407.32 412.92>
VStem: 395.32 8<379.117 385.637>
LayerCount: 2
Fore
SplineSet
75.3633 778.958 m 1,0,-1
 137.5 778.958 l 1,1,-1
 137.5 722.5 l 1,2,-1
 190.687 739.783 l 1,3,-1
 206.866 680.679 l 1,4,-1
 156.211 663.25 l 1,5,-1
 188.229 617.8 l 1,6,-1
 138.961 581.278 l 1,7,-1
 106.025 626.603 l 1,8,-1
 73.3145 581.588 l 1,9,-1
 24.0469 618.11 l 1,10,-1
 55.9688 663.43 l 1,11,-1
 4.63379 680.751 l 1,12,-1
 21.8135 739.857 l 1,13,-1
 75.3633 722.458 l 1,14,-1
 75.3633 778.958 l 1,0,-1
EndSplineSet
EndChar

StartChar: plus
Encoding: 43 43 14
Width: 495
Flags: W
HStem: 321 80<64 209 290 431>
VStem: 209 81<160 320 401 549>
LayerCount: 2
Fore
SplineSet
299.5 311.5 m 1,0,-1
 299.5 150.5 l 1,1,-1
 199.5 150.5 l 1,2,-1
 199.5 310.5 l 1,3,-1
 54.5 310.5 l 1,4,-1
 54.5 407.5 l 1,5,-1
 199.5 407.5 l 1,6,-1
 199.5 558.5 l 1,7,-1
 298.5 558.5 l 1,8,-1
 298.5 410.5 l 1,9,-1
 440.5 410.5 l 1,10,-1
 440.5 311.5 l 1,11,-1
 299.5 311.5 l 1,0,-1
EndSplineSet
EndChar

StartChar: comma
Encoding: 44 44 15
Width: 154
Flags: W
LayerCount: 2
Fore
SplineSet
62.6528 17.8189 m 1,0,1
 58.7386 17.1117 58.7386 17.1117 49.0764 17.1117 c 128,-1,2
 39.4141 17.1117 39.4141 17.1117 24.9925 31.0046 c 128,-1,3
 10.5 44.9657 10.5 44.9657 10.5 72.0754 c 128,-1,4
 10.5 99.319 10.5 99.319 30.9687 117.16 c 128,-1,5
 51.4374 135 51.4374 135 76.5014 135 c 128,-1,6
 101.49 135 101.49 135 122.495 117.199 c 128,-1,7
 143.5 99.397 143.5 99.397 143.5 71.5099 c 128,-1,8
 143.5 43.6228 143.5 43.6228 133.788 27.6749 c 128,-1,9
 124.077 11.727 124.077 11.727 115.55 0 c 128,-1,10
 107.023 -11.727 107.023 -11.727 87.6499 -30.3557 c 128,-1,11
 68.2768 -48.9844 68.2768 -48.9844 63.9689 -51.1371 c 128,-1,12
 59.661 -53.2897 59.661 -53.2897 44.035 -63.056 c 2,13,-1
 -6.21181 -94.4603 l 1,14,-1
 31.6989 -48.9219 l 2,15,16
 50.4265 -26.4262 50.4265 -26.4262 60.8655 10.1099 c 0,17,18
 62.3064 15.1526 62.3064 15.1526 62.6528 17.8189 c 1,0,1
EndSplineSet
EndChar

StartChar: hyphen
Encoding: 45 45 16
Width: 354
Flags: W
HStem: 222 81<49 438>
LayerCount: 2
Fore
SplineSet
313.5 212.5 m 1,0,-1
 39.5 212.5 l 1,1,-1
 39.5 312.5 l 1,2,-1
 313.5 312.5 l 1,3,-1
 313.5 212.5 l 1,0,-1
EndSplineSet
EndChar

StartChar: period
Encoding: 46 46 17
Width: 190
Flags: W
HStem: 0 21G<65.665 80.335>
LayerCount: 2
Fore
SplineSet
73 128 m 128,-1,1
 98.3879 128 98.3879 128 119.02 111.099 c 0,2,3
 140.5 93.5031 140.5 93.5031 140.5 62 c 0,4,5
 140.5 28.8238 140.5 28.8238 119.42 9.49754 c 0,6,7
 98.6986 -9.5 98.6986 -9.5 73 -9.5 c 128,-1,8
 47.3882 -9.5 47.3882 -9.5 26.6886 8.89966 c 0,9,10
 5.5 27.734 5.5 27.734 5.5 60 c 0,11,12
 5.5 91.3109 5.5 91.3109 26.7442 109.9 c 0,13,0
 47.4304 128 47.4304 128 73 128 c 128,-1,1
EndSplineSet
EndChar

StartChar: slash
Encoding: 47 47 18
Width: 390
Flags: W
HStem: 0 21G<2 87> 684 20G<276 356>
VStem: 2 354<0 704>
LayerCount: 2
Fore
SplineSet
111.54 -9.5 m 1,0,-1
 6.10826 -9.5 l 1,1,-1
 287.504 713.5 l 1,2,-1
 387.8 713.5 l 1,3,-1
 111.54 -9.5 l 1,0,-1
EndSplineSet
EndChar

StartChar: zero
Encoding: 48 48 19
Width: 569
Flags: W
HStem: -6.7622 81.1626<214.241 362.21> 634.756 81.1626<214.241 362.21>
VStem: 48.4525 480.304<171.62 211.898 191.697 191.697>
LayerCount: 2
Fore
SplineSet
434.589 505.725 m 0,0,1
 424.841 556.678 424.841 556.678 383.333 590.992 c 128,-1,2
 341.823 625.306 341.823 625.306 288.317 625.306 c 128,-1,3
 234.82 625.306 234.82 625.306 193.807 591.173 c 128,-1,4
 152.769 557.02 152.769 557.02 142.608 505.672 c 0,5,6
 127.904 431.359 127.904 431.359 127.904 355.509 c 128,-1,7
 127.904 279.656 127.904 279.656 142.613 204.634 c 0,8,9
 153.066 151.32 153.066 151.32 193.931 117.585 c 128,-1,10
 234.796 83.8506 234.796 83.8506 288.317 83.8506 c 128,-1,11
 341.847 83.8506 341.847 83.8506 383.218 117.775 c 128,-1,12
 424.568 151.682 424.568 151.682 434.585 204.576 c 0,13,14
 448.428 277.68 448.428 277.68 448.428 355.536 c 128,-1,15
 448.428 433.388 448.428 433.388 434.589 505.725 c 0,0,1
288.331 -19.9121 m 128,-1,17
 195.928 -19.9121 195.928 -19.9121 124.78 38.4585 c 128,-1,18
 53.605 96.851 53.605 96.851 37.2067 185.529 c 128,-1,19
 20.8085 274.206 20.8085 274.206 20.8085 354.578 c 128,-1,20
 20.8085 434.951 20.8085 434.951 37.2066 523.628 c 128,-1,21
 53.6048 612.304 53.6048 612.304 124.781 670.697 c 128,-1,22
 195.929 729.068 195.929 729.068 288.331 729.068 c 128,-1,23
 380.739 729.068 380.739 729.068 451.876 670.467 c 128,-1,24
 523.086 611.807 523.086 611.807 539.748 524.907 c 128,-1,25
 556.41 438.007 556.41 438.007 556.41 354.578 c 128,-1,26
 556.41 271.148 556.41 271.148 539.748 184.248 c 128,-1,27
 523.086 97.3485 523.086 97.3485 451.876 38.688 c 128,-1,16
 380.74 -19.9121 380.74 -19.9121 288.331 -19.9121 c 128,-1,17
EndSplineSet
EndChar

StartChar: one
Encoding: 49 49 20
Width: 289
Flags: W
HStem: 0 21G<169.771 253.771>
VStem: 169.771 84<0 510.18>
LayerCount: 2
Fore
SplineSet
160.021 486.384 m 1,0,-1
 144.918 470.892 l 1,1,-1
 62.466 535.096 l 1,2,-1
 263.521 743.828 l 1,3,-1
 263.521 -9.5 l 1,4,-1
 160.021 -9.5 l 1,5,-1
 160.021 486.384 l 1,0,-1
EndSplineSet
EndChar

StartChar: two
Encoding: 50 50 21
Width: 483
Flags: W
HStem: 0 81<161.648 438.81> 626.5 81.5<186.851 359.192>
VStem: 353.5 74.3209<484.264 578.065>
LayerCount: 2
Fore
SplineSet
265 617 m 0,0,1
 199.591 617 199.591 617 150.595 526.529 c 1,2,-1
 87.1933 601.331 l 1,3,4
 136.807 664.109 136.807 664.109 177.05 690.805 c 128,-1,5
 217.294 717.5 217.294 717.5 260.625 717.5 c 0,6,7
 340.59 717.5 340.59 717.5 397.956 672.497 c 128,-1,8
 455.321 627.495 455.321 627.495 455.321 527.801 c 0,9,10
 455.321 483.173 455.321 483.173 438.008 446.768 c 128,-1,11
 420.694 410.362 420.694 410.362 352.495 312.474 c 2,12,-1
 197.845 90.5 l 1,13,-1
 466.31 90.5 l 1,14,-1
 466.31 -9.5 l 1,15,-1
 4.09836 -9.5 l 1,16,-1
 295.332 402.588 l 2,17,18
 343.71 471.131 343.71 471.131 352.855 489.64 c 128,-1,19
 362 508.149 362 508.149 362 527.916 c 0,20,21
 362 588.357 362 588.357 314.066 608.418 c 0,22,23
 293.56 617 293.56 617 265 617 c 0,0,1
EndSplineSet
EndChar

StartChar: three
Encoding: 51 51 22
Width: 554
Flags: W
HStem: -12.95 78.9764<155.735 288.801> 614.716 77.5944<92.9201 379.776>
VStem: 404.941 77.5986<148.319 276.483>
LayerCount: 2
Fore
SplineSet
153.087 356.5 m 0,0,-1
 336 604 l 1,14,-1
 84 604 l 1,15,-1
 84 702 l 1,16,-1
 519 702 l 1,17,-1
 321 427 l 0,18,19
 492 396 492 396 492 212 c 0,20,21
 492 -22 492 -22 232 -22 c 0,23,24
 156.247 -22 156.247 -22 47 36 c 1,25,-1
 110 122 l 1,0,1
 189.716 78 189.716 78 236 78 c 0,2,3
 385.993 77.9984 385.993 77.9984 387 214.5 c 0,4,5
 388.052 352.947 388.052 352.947 230 356.01 c 0,0,0
 153.087 356.5 l 0,0,-1
EndSplineSet
EndChar

StartChar: four
Encoding: 52 52 23
Width: 505
Flags: W
HStem: 0 21G<325.5 408.19> 157.5 79.4004<163.06 325.5 408.19 492.18>
VStem: 327.51 79.7097<0 157.49 237.91 361.52>
LayerCount: 2
Fore
SplineSet
385.46 732.932 m 1,0,-1
 462.39 678.653 l 1,1,-1
 180.593 246.4 l 1,2,-1
 318.01 246.4 l 1,3,-1
 318.01 364.237 l 1,4,-1
 416.72 522.747 l 1,5,-1
 416.72 247.41 l 1,6,-1
 501.68 247.41 l 1,7,-1
 501.68 147.99 l 1,8,-1
 417.69 147.99 l 1,9,-1
 417.69 -9.5 l 1,10,-1
 316 -9.5 l 1,11,-1
 316 148 l 1,12,-1
 -0.654051 148 l 1,13,-1
 385.46 732.932 l 1,0,-1
EndSplineSet
EndChar

StartChar: five
Encoding: 53 53 24
Width: 408
Flags: W
HStem: -11.1 82.3676<111.254 277.684> 358.303 72.3672<95.9297 231.55> 616.66 79.3398<121.13 328.92>
VStem: 298.969 81.8311<118.727 290.483>
LayerCount: 2
Fore
SplineSet
70.9988 119.032 m 1,0,1
 114.72 80.7676 114.72 80.7676 159.787 80.7676 c 0,2,3
 220.214 80.7676 220.214 80.7676 254.841 119.128 c 128,-1,4
 289.469 157.488 289.469 157.488 289.469 213.906 c 128,-1,5
 289.469 270.187 289.469 270.187 250.028 309.488 c 128,-1,6
 210.573 348.803 210.573 348.803 154.882 348.803 c 2,7,-1
 -1.74512 348.803 l 1,8,-1
 41.3486 705.5 l 1,9,-1
 338.42 705.5 l 1,10,-1
 338.42 607.16 l 1,11,-1
 129.429 607.16 l 1,12,-1
 106.804 440.17 l 1,13,-1
 151.6 440.17 l 2,14,15
 260.755 440.17 260.755 440.17 325.535 374.911 c 128,-1,16
 390.3 309.667 390.3 309.667 390.3 210.428 c 128,-1,17
 390.3 111.283 390.3 111.283 329.391 45.3415 c 128,-1,18
 268.482 -20.6 268.482 -20.6 167.111 -20.6 c 0,19,20
 62.4406 -20.6 62.4406 -20.6 -4.16146 42.8801 c 1,21,-1
 70.9988 119.032 l 1,0,1
EndSplineSet
EndChar

StartChar: six
Encoding: 54 54 25
Width: 527
VWidth: 990
Flags: W
HStem: -9.34863 80.2949<186.353 338.002> 351.209 80.8516<216.698 343.236>
VStem: 43.2031 77.8975<130.994 268.475> 267.739 84.1201<628.957 713.077> 403.783 79.502<131.036 287.264>
LayerCount: 2
Fore
SplineSet
33.7031 211.334 m 0,0,1
 33.7031 257.492 33.7031 257.492 63.4707 318.184 c 2,2,-1
 261.817 722.577 l 1,3,-1
 367.3 722.577 l 1,4,-1
 223.372 437.602 l 1,5,6
 241.025 441.561 241.025 441.561 263.265 441.561 c 0,7,8
 357.38 441.561 357.38 441.561 425.034 375.552 c 128,-1,9
 492.785 309.448 492.785 309.448 492.785 211.334 c 128,-1,10
 492.785 113.238 492.785 113.238 425.018 47.1471 c 128,-1,11
 357.348 -18.8486 357.348 -18.8486 263.265 -18.8486 c 128,-1,12
 169.16 -18.8486 169.16 -18.8486 101.481 47.1651 c 128,-1,13
 33.7031 113.275 33.7031 113.275 33.7031 211.334 c 0,0,1
167.246 306.008 m 128,-1,15
 130.601 270.423 130.601 270.423 130.601 212.072 c 128,-1,16
 130.601 153.778 130.601 153.778 169.125 117.112 c 128,-1,17
 207.65 80.4463 207.65 80.4463 262.177 80.4463 c 128,-1,18
 316.746 80.4463 316.746 80.4463 355.514 116.811 c 128,-1,19
 394.283 153.176 394.283 153.176 394.283 209.288 c 128,-1,20
 394.283 265.4 394.283 265.4 357.348 303.623 c 128,-1,21
 320.545 341.709 320.545 341.709 262.365 341.709 c 128,-1,14
 204.011 341.709 204.011 341.709 167.246 306.008 c 128,-1,15
EndSplineSet
EndChar

StartChar: seven
Encoding: 55 55 26
Width: 438
Flags: W
HStem: 0 21G<5 93> 609 81<31 287>
VStem: 5 411<0 690>
LayerCount: 2
Fore
SplineSet
21.5 699.5 m 1,0,-1
 430.936 699.5 l 1,1,-1
 99.0422 -9.5 l 1,2,-1
 -9.86809 -9.5 l 1,3,-1
 272.132 599.5 l 1,4,-1
 21.5 599.5 l 1,5,-1
 21.5 699.5 l 1,0,-1
EndSplineSet
EndChar

StartChar: eight
Encoding: 56 56 27
Width: 459
Flags: W
HStem: -3.47656 78.5215<183.583 279.229> 342.405 53.3877<189.009 269.79> 623.317 81.0791<189.009 269.79>
VStem: 14.7715 83.3506<160.764 256.696> 31.2256 85.624<469.88 550.906> 341.98 80.373<469.88 550.892> 364.718 81.3906<160.764 256.683>
LayerCount: 2
Fore
SplineSet
431.854 510.965 m 0,0,1
 431.854 433.833 431.854 433.833 384.849 377.233 c 1,2,3
 455.608 311.319 455.608 311.319 455.608 217.454 c 0,4,5
 455.608 119.362 455.608 119.362 389.639 53.1955 c 128,-1,6
 323.664 -12.9766 323.664 -12.9766 230.44 -12.9766 c 128,-1,7
 137.219 -12.9766 137.219 -12.9766 71.2426 53.1954 c 128,-1,8
 5.2715 119.362 5.2715 119.362 5.2715 215.857 c 0,9,10
 5.2715 307.911 5.2715 307.911 72.002 373.321 c 1,11,12
 21.7256 430.797 21.7256 430.797 21.7256 509.553 c 0,13,14
 21.7256 593.367 21.7256 593.367 81.7988 653.629 c 128,-1,15
 141.877 713.896 141.877 713.896 226.784 713.896 c 128,-1,16
 311.69 713.896 311.69 713.896 371.775 653.634 c 128,-1,17
 431.854 593.378 431.854 593.378 431.854 510.965 c 0,0,1
229.399 613.817 m 128,-1,19
 186.753 613.817 186.753 613.817 156.555 583.51 c 128,-1,20
 126.35 553.196 126.35 553.196 126.35 510.379 c 128,-1,21
 126.35 467.496 126.35 467.496 156.632 436.339 c 128,-1,22
 186.806 405.293 186.806 405.293 229.399 405.293 c 128,-1,23
 271.998 405.293 271.998 405.293 302.189 436.341 c 128,-1,24
 332.48 467.493 332.48 467.493 332.48 510.379 c 128,-1,25
 332.48 553.196 332.48 553.196 302.266 583.51 c 128,-1,18
 272.059 613.817 272.059 613.817 229.399 613.817 c 128,-1,19
231.399 332.905 m 128,-1,27
 180.154 332.905 180.154 332.905 143.891 296.526 c 128,-1,28
 107.622 260.141 107.622 260.141 107.622 208.73 c 128,-1,29
 107.622 157.313 107.622 157.313 143.891 120.926 c 128,-1,30
 180.154 84.5449 180.154 84.5449 231.399 84.5449 c 128,-1,31
 282.654 84.5449 282.654 84.5449 318.918 120.916 c 128,-1,32
 355.218 157.323 355.218 157.323 355.218 208.73 c 128,-1,33
 355.218 260.13 355.218 260.13 318.919 296.533 c 128,-1,26
 282.649 332.905 282.649 332.905 231.399 332.905 c 128,-1,27
EndSplineSet
EndChar

StartChar: nine
Encoding: 57 57 28
Width: 474
VWidth: 990
Flags: W
HStem: 0 21G<144.629 145.243 144.629 228.749> 304.365 81.666<137.263 277.838> 631.875 81.2021<148.289 320.235>
VStem: 29.502 80.4258<421.891 605.039> 357.896 79.0908<450.53 605.797>
LayerCount: 2
Fore
SplineSet
446.5 509 m 0,0,1
 446.5 464.034 446.5 464.034 437.106 443.159 c 2,2,-1
 234.918 -9.5 l 1,3,-1
 130.01 -9.5 l 1,4,-1
 269.956 298.184 l 1,5,6
 253.584 294.5 253.584 294.5 233 294.5 c 0,7,8
 146.169 294.5 146.169 294.5 83.3575 355.779 c 128,-1,9
 20.5 417.103 20.5 417.103 20.5 508.5 c 128,-1,10
 20.5 599.897 20.5 599.897 83.3575 661.221 c 128,-1,11
 146.168 722.5 146.168 722.5 233.5 722.5 c 128,-1,12
 320.832 722.5 320.832 722.5 383.642 661.221 c 128,-1,13
 446.5 599.897 446.5 599.897 446.5 509 c 0,0,1
316.867 426.231 m 128,-1,15
 348.5 456.905 348.5 456.905 348.5 508 c 128,-1,16
 348.5 559.058 348.5 559.058 314.913 590.726 c 128,-1,17
 281.213 622.5 281.213 622.5 234 622.5 c 128,-1,18
 186.787 622.5 186.787 622.5 153.087 590.726 c 128,-1,19
 119.5 559.058 119.5 559.058 119.5 510.5 c 128,-1,20
 119.5 461.825 119.5 461.825 151.728 428.635 c 128,-1,21
 183.903 395.5 183.903 395.5 234.5 395.5 c 128,-1,14
 285.176 395.5 285.176 395.5 316.867 426.231 c 128,-1,15
EndSplineSet
EndChar

StartChar: colon
Encoding: 58 58 29
Width: 161
Flags: W
VStem: 22 117<49.0525 101.105 384.858 432.457>
LayerCount: 2
Fore
SplineSet
80.5 474 m 128,-1,1
 105.24 474 105.24 474 126.299 457.776 c 0,2,3
 148.5 440.672 148.5 440.672 148.5 410 c 0,4,5
 148.5 378.565 148.5 378.565 126.601 360.218 c 0,6,7
 105.453 342.5 105.453 342.5 80.5 342.5 c 128,-1,8
 55.6304 342.5 55.6304 342.5 34.5159 359.622 c 0,9,10
 12.5 377.475 12.5 377.475 12.5 409 c 1,11,-1
 12.5 409.007 l 2,12,13
 12.5 438.47 12.5 438.47 34.4552 456.578 c 0,14,0
 55.5769 474 55.5769 474 80.5 474 c 128,-1,1
79 143 m 128,-1,16
 104.387 143 104.387 143 125.02 126.099 c 0,17,18
 146.5 108.504 146.5 108.504 146.5 77 c 0,19,20
 146.5 43.8238 146.5 43.8238 125.42 24.4975 c 0,21,22
 104.699 5.5 104.699 5.5 79 5.5 c 128,-1,23
 53.3882 5.5 53.3882 5.5 32.6886 23.8997 c 0,24,25
 11.5 42.734 11.5 42.734 11.5 75 c 0,26,27
 11.5 106.311 11.5 106.311 32.7442 124.9 c 0,28,15
 53.4305 143 53.4305 143 79 143 c 128,-1,16
EndSplineSet
EndChar

StartChar: semicolon
Encoding: 59 59 30
Width: 154
Flags: W
LayerCount: 2
Fore
SplineSet
7.5 415 m 128,-1,1
 7.5 445.129 7.5 445.129 28.445 462.315 c 128,-1,2
 49.3901 479.5 49.3901 479.5 75 479.5 c 128,-1,3
 100.571 479.5 100.571 479.5 121.535 462.836 c 128,-1,4
 142.5 446.172 142.5 446.172 142.5 415 c 128,-1,5
 142.5 383.913 142.5 383.913 121.574 366.206 c 128,-1,6
 100.648 348.5 100.648 348.5 75 348.5 c 128,-1,7
 49.3138 348.5 49.3138 348.5 28.4069 366.727 c 128,-1,0
 7.5 384.953 7.5 384.953 7.5 415 c 128,-1,1
58 40.5 m 2,8,9
 43.3353 40.5 43.3353 40.5 27.9177 53.7151 c 128,-1,10
 12.5 66.9303 12.5 66.9303 12.5 94 c 128,-1,11
 12.5 121.008 12.5 121.008 33.3884 139.754 c 128,-1,12
 54.2768 158.5 54.2768 158.5 79.5 158.5 c 128,-1,13
 104.757 158.5 104.757 158.5 125.049 139.81 c 128,-1,14
 145.5 120.973 145.5 120.973 145.5 94.0036 c 0,15,16
 145.5 27.4584 145.5 27.4584 89.6277 -11.6527 c 2,17,-1
 66.5855 -28.6815 l 2,18,19
 63.2564 -30.9009 63.2564 -30.9009 45.0932 -39.9825 c 2,20,-1
 -9.67696 -70.2026 l 1,21,-1
 33.8367 -24.8018 l 2,22,23
 46.0468 -13.3547 46.0468 -13.3547 63.7069 32.3441 c 0,24,25
 65.4813 36.9357 65.4813 36.9357 65.4813 40.5 c 1,26,-1
 58 40.5 l 2,8,9
EndSplineSet
EndChar

StartChar: less
Encoding: 60 60 31
Width: 521
Flags: W
HStem: 136 460<446 451>
VStem: 6 445<374 596>
LayerCount: 2
Fore
SplineSet
487.5 611.356 m 1,0,-1
 487.5 510.102 l 1,1,-1
 205.703 370.646 l 1,2,-1
 482.5 221.675 l 1,3,-1
 482.5 120.061 l 1,4,-1
 12.4024 374.34 l 1,5,-1
 487.5 611.356 l 1,0,-1
EndSplineSet
EndChar

StartChar: equal
Encoding: 61 61 32
Width: 647
Flags: W
HStem: 200 88<114 556> 438 88<112 552>
LayerCount: 2
Fore
SplineSet
101.454 297.5 m 1,0,-1
 561.5 297.5 l 1,1,-1
 561.5 190.5 l 1,2,-1
 102.546 190.5 l 1,3,-1
 101.454 297.5 l 1,0,-1
101.546 535.5 m 1,4,-1
 561.5 535.5 l 1,5,-1
 561.5 428.5 l 1,6,-1
 102.454 428.5 l 1,7,-1
 101.546 535.5 l 1,4,-1
EndSplineSet
EndChar

StartChar: greater
Encoding: 62 62 33
Width: 520
Flags: W
HStem: 136 460<42 47>
VStem: 42 445<374 596>
LayerCount: 2
Fore
SplineSet
32.5 611.356 m 1,0,-1
 507.598 374.34 l 1,1,-1
 37.5 120.061 l 1,2,-1
 37.5 221.675 l 1,3,-1
 314.297 370.646 l 1,4,-1
 32.5 510.102 l 1,5,-1
 32.5 611.356 l 1,0,-1
EndSplineSet
EndChar

StartChar: question
Encoding: 63 63 34
Width: 401
Flags: W
HStem: 0 21G<138.665 153.335> 672 77<112.027 244.471>
VStem: 103 88<220 307.205> 278 82<528.317 639.071>
LayerCount: 2
Fore
SplineSet
-3.76955 680.064 m 1,0,1
 63.8274 758.5 63.8274 758.5 176 758.5 c 0,2,3
 258.805 758.5 258.805 758.5 314.152 705.341 c 128,-1,4
 369.5 652.181 369.5 652.181 369.5 568 c 0,5,6
 369.5 523.703 369.5 523.703 351.191 488.099 c 128,-1,7
 332.882 452.495 332.882 452.495 289.872 407.441 c 2,8,-1
 247.872 363.441 l 2,9,10
 212.976 326.876 212.976 326.876 206.738 307.217 c 128,-1,11
 200.5 287.559 200.5 287.559 200.5 237 c 2,12,-1
 197.454 210.5 l 1,13,-1
 93.5 210.5 l 1,14,-1
 93.5 248 l 2,15,16
 93.5 308.192 93.5 308.192 109.461 342.115 c 128,-1,17
 125.422 376.037 125.422 376.037 166.052 419.5 c 2,18,-1
 209.048 463.475 l 2,19,20
 212.79 467.485 212.79 467.485 224.052 478.122 c 0,21,22
 268.5 520.104 268.5 520.104 268.5 558 c 0,23,24
 268.5 662.5 268.5 662.5 163 662.5 c 0,25,26
 108.574 662.5 108.574 662.5 83.688 633.289 c 2,27,-1
 48.4428 594.287 l 1,28,-1
 -3.76955 680.064 l 1,0,1
78.5 59.5 m 128,-1,30
 78.5 91.3077 78.5 91.3077 99.4635 109.654 c 128,-1,31
 120.427 128 120.427 128 146 128 c 128,-1,32
 171.388 128 171.388 128 192.444 110.752 c 128,-1,33
 213.5 93.5031 213.5 93.5031 213.5 61.1607 c 128,-1,34
 213.5 28.8183 213.5 28.8183 192.596 9.65915 c 128,-1,35
 171.692 -9.5 171.692 -9.5 146 -9.5 c 128,-1,36
 120.385 -9.5 120.385 -9.5 99.4425 9.11845 c 128,-1,29
 78.5 27.7369 78.5 27.7369 78.5 59.5 c 128,-1,30
EndSplineSet
EndChar

StartChar: at
Encoding: 64 64 35
Width: 905
Flags: W
HStem: 18 68<389.073 531.224> 197.5 66.5<418.39 482.601> 475.5 64<420.458 481.513> 638 72<406.929 525.315>
VStem: 98 77<306.784 449.671> 274 73<331.538 403.288> 535.5 63.5<315.003 407.032> 750 71<308.242 437.729>
LayerCount: 2
Fore
SplineSet
380.606 538.279 m 0,0,1
 414.547 549.368 414.547 549.368 452.82 549.368 c 128,-1,2
 491.093 549.368 491.093 549.368 526.5 526.873 c 1,3,-1
 526.5 544.5 l 1,4,-1
 612.5 544.5 l 1,5,-1
 612.5 467 l 2,6,7
 614.379 335 614.379 335 614.379 279.098 c 1,8,9
 623.485 252.5 623.485 252.5 665 252.5 c 0,10,11
 689.136 252.5 689.136 252.5 709.151 272.514 c 128,-1,12
 729.165 292.529 729.165 292.529 734.822 306.671 c 128,-1,13
 740.5 320.867 740.5 320.867 740.5 367 c 0,14,15
 740.5 491.241 740.5 491.241 663.909 563.729 c 0,16,17
 630.956 594.918 630.956 594.918 575.693 611.694 c 128,-1,18
 520.332 628.5 520.332 628.5 460 628.5 c 128,-1,19
 399.863 628.5 399.863 628.5 336.96 603.437 c 128,-1,20
 274.057 578.374 274.057 578.374 241.565 536.254 c 0,21,22
 184.5 462.279 184.5 462.279 184.5 350 c 0,23,24
 184.5 267.571 184.5 267.571 250.476 186.858 c 0,25,26
 284.452 145.293 284.452 145.293 335.734 120.896 c 128,-1,27
 387.016 96.5 387.016 96.5 433 96.5 c 2,28,-1
 505 96.5 l 2,29,30
 507.855 96.5 507.855 96.5 561.215 107.384 c 128,-1,31
 614.574 118.268 614.574 118.268 614.574 130.79 c 1,32,-1
 655 65 l 1,33,-1
 630 47.5 l 2,34,35
 592.657 21.3601 592.657 21.3601 541.47 14.9301 c 128,-1,36
 490.283 8.5 490.283 8.5 430.713 8.5 c 128,-1,37
 371.143 8.5 371.143 8.5 312.467 29.7693 c 0,38,39
 209.096 67.2395 209.096 67.2395 148.753 158.009 c 128,-1,40
 88.5 248.641 88.5 248.641 88.5 350 c 0,41,42
 88.5 492.754 88.5 492.754 174.546 595.884 c 0,43,44
 221.077 651.655 221.077 651.655 302.086 685.578 c 128,-1,45
 383.096 719.5 383.096 719.5 460.888 719.5 c 128,-1,46
 538.68 719.5 538.68 719.5 608.961 697.758 c 128,-1,47
 679.243 676.016 679.243 676.016 727.963 633.387 c 128,-1,48
 776.806 590.649 776.806 590.649 803.653 520.239 c 128,-1,49
 830.5 449.829 830.5 449.829 830.5 381 c 128,-1,50
 830.5 312.162 830.5 312.162 816.651 276.258 c 128,-1,51
 802.803 240.355 802.803 240.355 758.753 201.427 c 128,-1,52
 714.703 162.5 714.703 162.5 645 162.5 c 0,53,54
 614.172 162.5 614.172 162.5 582.783 174.457 c 128,-1,55
 551.394 186.415 551.394 186.415 533.83 211.626 c 1,56,57
 498.978 187.5 498.978 187.5 453.591 187.5 c 128,-1,58
 408.203 187.5 408.203 187.5 366.163 202.88 c 128,-1,59
 324.123 218.261 324.123 218.261 294.311 260.922 c 128,-1,60
 264.5 303.583 264.5 303.583 264.5 357 c 0,61,62
 264.5 500.344 264.5 500.344 380.606 538.279 c 0,0,1
456 465.5 m 0,63,64
 398.513 465.5 398.513 465.5 371.793 423.579 c 0,65,66
 356.5 399.585 356.5 399.585 356.5 367.839 c 128,-1,67
 356.5 336.093 356.5 336.093 371.772 312.453 c 0,68,69
 396.938 273.5 396.938 273.5 456 273.5 c 0,70,71
 478.483 273.5 478.483 273.5 500.112 289.957 c 128,-1,72
 521.74 306.414 521.74 306.414 523.42 321.531 c 128,-1,73
 525.1 336.649 525.1 336.649 525.1 349.904 c 1,74,75
 524.5 -3.05953 524.5 -3.05953 524.5 407.364 c 1,76,77
 516.841 433.603 516.841 433.603 497.628 449.536 c 128,-1,78
 478.377 465.5 478.377 465.5 456 465.5 c 0,63,64
EndSplineSet
EndChar

StartChar: A
Encoding: 65 65 36
Width: 674
Flags: W
HStem: 175 91<233 434>
LayerCount: 2
Fore
SplineSet
665.911 -5.23159 m 1,0,-1
 568.771 -49.9816 l 1,1,-1
 471.099 165.5 l 1,2,-1
 197.938 165.5 l 1,3,-1
 103.262 -50.0405 l 1,4,-1
 8.17591 -5.22998 l 1,5,-1
 328.898 755.339 l 1,6,-1
 665.911 -5.23159 l 1,0,-1
424.191 275.5 m 1,7,-1
 330.127 496.223 l 1,8,-1
 241.652 275.5 l 1,9,-1
 424.191 275.5 l 1,7,-1
EndSplineSet
EndChar

StartChar: B
Encoding: 66 66 37
Width: 517
Flags: W
HStem: 19.1487 77.52<109.751 375.007> 328.26 88.179<109.751 298.028> 617.991 67.83<109.751 247.491 247.491 270.211 274.471 295.866>
VStem: -13.7894 123.54<96.6686 328.26 416.439 618.96> 459.071 134.19<158.114 256.099>
LayerCount: 2
Fore
SplineSet
376.312 389.37 m 1,0,1
 477.799 370.105 477.799 370.105 477.799 195.672 c 0,2,3
 477.799 109.743 477.799 109.743 423.911 50.0072 c 0,4,5
 370.864 -8.79617 370.864 -8.79617 280.648 -9.26166 c 0,6,7
 234.454 -9.5 234.454 -9.5 35.8887 -9.5 c 1,8,-1
 31.3887 -9.5 l 1,9,-1
 31.3887 697.5 l 1,10,-1
 243.236 697.5 l 2,11,12
 333.521 697.5 333.521 697.5 376.355 646.902 c 128,-1,13
 419.189 596.305 419.189 596.305 419.189 527.551 c 0,14,15
 419.189 413.794 419.189 413.794 376.312 389.37 c 1,0,1
137.767 607.191 m 1,16,-1
 137.767 428.863 l 1,17,-1
 246.1 428.863 l 2,18,19
 315.5 428.863 315.5 428.863 315.5 524.17 c 0,20,21
 315.5 607.191 315.5 607.191 242.566 607.191 c 1,22,-1
 241.52 607.191 l 1,23,24
 189.643 607.191 189.643 607.191 137.767 607.191 c 1,16,-1
137.767 311.818 m 1,25,-1
 137.767 89.4014 l 1,26,-1
 286.86 89.4014 l 2,27,28
 366.155 89.4014 366.155 89.4014 366.155 195.429 c 0,29,30
 366.155 311.818 366.155 311.818 259.028 311.818 c 2,31,-1
 137.767 311.818 l 1,25,-1
EndSplineSet
EndChar

StartChar: C
Encoding: 67 67 38
Width: 620
Flags: W
HStem: -17.59 85.45<282.964 474.709> 628.75 85.09<282.145 463.65>
VStem: 8.34003 96.63<263.646 435.454>
LayerCount: 2
Fore
SplineSet
626.09 81.7541 m 1,0,1
 520.837 -27.5 520.837 -27.5 380 -27.5 c 0,2,3
 267.762 -27.5 267.762 -27.5 182.72 23.1203 c 128,-1,4
 97.6779 73.7405 97.6779 73.7405 48.0901 160.772 c 128,-1,5
 -1.5 247.808 -1.5 247.808 -1.5 349 c 2,6,-1
 -1.5 350 l 2,7,8
 -1.5 451.108 -1.5 451.108 42.5142 535.089 c 128,-1,9
 86.6105 619.227 86.6105 619.227 175.217 671.378 c 128,-1,10
 263.774 723.5 263.774 723.5 382 723.5 c 2,11,-1
 383 723.5 l 1,12,13
 515.055 723.5 515.055 723.5 617.466 627.198 c 1,14,-1
 542.62 550.15 l 1,15,16
 492.354 619.399 492.354 619.399 381.126 619.399 c 128,-1,17
 269.897 619.399 269.897 619.399 192.199 539.784 c 128,-1,18
 114.5 460.169 114.5 460.169 114.5 348 c 128,-1,19
 114.5 235.831 114.5 235.831 191.699 156.84 c 128,-1,20
 268.897 77.8487 268.897 77.8487 381.24 77.8487 c 128,-1,21
 493.582 77.8487 493.582 77.8487 555.803 165.22 c 1,22,-1
 626.09 81.7541 l 1,0,1
EndSplineSet
EndChar

StartChar: D
Encoding: 68 68 39
Width: 589
Flags: W
HStem: 0 83.66<83.8625 431.548> 610.34 77.66<82.2645 425.555>
VStem: 39 88.64<83.66 610.34> 451.36 92.64<123.352 576.311>
LayerCount: 2
Fore
SplineSet
29.5 700.5 m 1,0,-1
 40.9829 700.5 l 1,1,2
 59.0408 697.5 59.0408 697.5 288.01 697.5 c 0,3,4
 554 697.5 554 697.5 554 350 c 1,5,-1
 554 353 l 0,6,7
 554 -9.5 554 -9.5 285 -9.5 c 2,8,-1
 29.5 -9.5 l 1,9,-1
 29.5 700.5 l 1,0,-1
279.094 600.84 m 0,10,11
 203.846 600.84 203.846 600.84 137.14 600.92 c 1,12,-1
 137.14 92.9989 l 1,13,14
 164.871 93.1592 164.871 93.1592 279.027 93.1592 c 0,15,16
 441.5 93.1592 441.5 93.1592 441.5 347 c 128,-1,17
 441.5 600.84 441.5 600.84 279.094 600.84 c 0,10,11
EndSplineSet
EndChar

StartChar: E
Encoding: 69 69 40
Width: 483
Flags: W
HStem: 0 82<146 429> 329 83<146 342> 608 85<146 420>
VStem: 54 92<82 329 412 608>
LayerCount: 2
Fore
SplineSet
44.5 702.5 m 1,0,-1
 429.5 702.5 l 1,1,-1
 429.5 598.5 l 1,2,-1
 155.5 598.5 l 1,3,-1
 155.5 419.5 l 1,4,-1
 351.5 419.5 l 1,5,-1
 351.5 319.5 l 1,6,-1
 155.5 319.5 l 1,7,-1
 155.5 91.5 l 1,8,-1
 438.5 91.5 l 1,9,-1
 438.5 -9.5 l 1,10,-1
 44.5 -9.5 l 1,11,-1
 44.5 702.5 l 1,0,-1
EndSplineSet
EndChar

StartChar: F
Encoding: 70 70 41
Width: 469
Flags: W
HStem: 0 21G<58 151> 329 83<151 346> 609 82<151 411>
VStem: 58 93<0 329 412 609>
LayerCount: 2
Fore
SplineSet
48.5 700.5 m 1,0,-1
 420.5 700.5 l 1,1,-1
 420.5 599.5 l 1,2,-1
 160.5 599.5 l 1,3,-1
 160.5 419.5 l 1,4,-1
 355.5 419.5 l 1,5,-1
 355.5 319.5 l 1,6,-1
 160.5 319.5 l 1,7,-1
 160.5 -9.5 l 1,8,-1
 48.5 -9.5 l 1,9,-1
 48.5 700.5 l 1,0,-1
EndSplineSet
EndChar

StartChar: G
Encoding: 71 71 42
Width: 704
Flags: W
HStem: -12.4601 88.9601<346.932 563.841> 274.5 88.72<526.232 717.904> 628 86.62<332.85 609.565>
VStem: -49.5774 127.203<288.743 445.467> 717.947 131.293<135.05 274.5>
LayerCount: 2
Fore
SplineSet
568.209 559.905 m 1,0,1
 513.101 618.978 513.101 618.978 400.133 618.978 c 128,-1,2
 287.164 618.978 287.164 618.978 207.202 535.703 c 128,-1,3
 127.241 452.429 127.241 452.429 127.241 348.259 c 0,4,5
 127.241 224.484 127.241 224.484 207.299 144.629 c 0,6,7
 266.42 85.6582 266.42 85.6582 364.775 85.6582 c 0,8,9
 502.542 85.6582 502.542 85.6582 560.447 139.893 c 1,10,-1
 560.447 265.501 l 1,11,-1
 424.398 265.501 l 1,12,-1
 424.398 370.795 l 1,13,-1
 676.295 370.795 l 1,14,-1
 676.295 112.699 l 1,15,16
 579.863 -22.4795 579.863 -22.4795 368.521 -22.4795 c 0,17,18
 229.275 -22.4795 229.275 -22.4795 123.77 76.2728 c 128,-1,19
 18.2646 175.025 18.2646 175.025 18.2646 350 c 0,20,21
 18.2646 504.298 18.2646 504.298 138.843 614.291 c 128,-1,22
 259.244 724.12 259.244 724.12 389.498 724.12 c 2,23,-1
 390.842 724.12 l 1,24,25
 545.746 724.12 545.746 724.12 637.297 633.581 c 1,26,-1
 568.209 559.905 l 1,0,1
EndSplineSet
EndChar

StartChar: H
Encoding: 72 72 43
Width: 630
Flags: W
HStem: 0 21G<58 151 481 572> 311 83<151 481> 676 20G<481 572>
VStem: 58 93<0 311 394 690> 481 91<0 311 394 696>
LayerCount: 2
Fore
SplineSet
471.5 705.5 m 1,0,-1
 581.5 705.5 l 1,1,-1
 581.5 -9.5 l 1,2,-1
 471.5 -9.5 l 1,3,-1
 471.5 301.5 l 1,4,-1
 160.5 301.5 l 1,5,-1
 160.5 -9.5 l 1,6,-1
 48.5 -9.5 l 1,7,-1
 48.5 699.5 l 1,8,-1
 159.5 699.5 l 1,9,-1
 159.5 403.5 l 1,10,-1
 471.5 403.5 l 1,11,-1
 471.5 705.5 l 1,0,-1
EndSplineSet
EndChar

StartChar: I
Encoding: 73 73 44
Width: 207
Flags: W
HStem: 0 21G<59 148> 676 20G<58 148>
VStem: 58 90<0 696>
LayerCount: 2
Fore
SplineSet
103.486 706 m 1,0,-1
 157.5 706 l 1,1,-1
 157.5 -9.5 l 1,2,-1
 48.5176 -9.5 l 1,3,-1
 48.5176 706 l 1,4,-1
 103.486 706 l 1,0,-1
EndSplineSet
EndChar

StartChar: J
Encoding: 74 74 45
Width: 396
Flags: W
HStem: 680 20G<273 364>
VStem: 273 91<166.755 700>
LayerCount: 2
Fore
SplineSet
59.9488 86.744 m 1,0,1
 94.1688 54.0023 94.1688 54.0023 136.557 54.0023 c 0,2,3
 263.5 54.0023 263.5 54.0023 263.5 228 c 2,4,-1
 263.5 709.5 l 1,5,-1
 373.5 709.5 l 1,6,-1
 373.5 222 l 2,7,8
 373.5 64.1278 373.5 64.1278 296.399 3.05329 c 0,9,10
 227.305 -51.6786 227.305 -51.6786 150.476 -51.6786 c 0,11,12
 70.7589 -51.6786 70.7589 -51.6786 9.53026 -10.4038 c 1,13,-1
 59.9488 86.744 l 1,0,1
EndSplineSet
EndChar

StartChar: K
Encoding: 75 75 46
Width: 636
Flags: W
HStem: 0 21G<49 142 472 587> 666 20G<49 142 414 527>
VStem: 49 93<0 358 361 686>
LayerCount: 2
Fore
SplineSet
409.563 695.5 m 1,0,-1
 547.669 695.5 l 1,1,-1
 261.747 362.268 l 1,2,-1
 608.867 -9.5 l 1,3,-1
 467.837 -9.5 l 1,4,-1
 151.5 333.678 l 1,5,-1
 151.5 -9.5 l 1,6,-1
 39.5 -9.5 l 1,7,-1
 39.5 695.5 l 1,8,-1
 151.5 695.5 l 1,9,-1
 151.5 387.153 l 1,10,-1
 409.563 695.5 l 1,0,-1
EndSplineSet
EndChar

StartChar: L
Encoding: 76 76 47
Width: 474
Flags: W
HStem: 0 85<142 425>
VStem: 49 93<85 690>
LayerCount: 2
Fore
SplineSet
39.5 700.281 m 1,0,-1
 42.0625 699.5 l 1,1,-1
 151.5 699.5 l 1,2,-1
 151.5 94.5 l 1,3,-1
 434.5 94.5 l 1,4,-1
 434.5 -9.5 l 1,5,-1
 39.5 -9.5 l 1,6,-1
 39.5 700.281 l 1,0,-1
EndSplineSet
EndChar

StartChar: M
Encoding: 77 77 48
Width: 734
Flags: W
VStem: 64 98<0 136.875> 572 97<-1 108.75>
LayerCount: 2
Fore
SplineSet
368.986 353.055 m 1,0,-1
 662.919 754.248 l 1,1,-1
 678.69 -10.1085 l 1,2,-1
 562.757 -14.8892 l 1,3,-1
 551.25 421.44 l 1,4,-1
 369.095 166.805 l 1,5,-1
 179.945 424.737 l 1,6,-1
 171.307 -13.8878 l 1,7,-1
 54.298 -9.11191 l 1,8,-1
 71.1141 758.12 l 1,9,-1
 368.986 353.055 l 1,0,-1
EndSplineSet
EndChar

StartChar: N
Encoding: 78 78 49
Width: 646
Flags: W
HStem: 676 20G<500 588>
VStem: 58 87<3 467> 500 88<204 696>
LayerCount: 2
Fore
SplineSet
154.5 442.14 m 1,0,-1
 154.5 -4.5 l 1,1,-1
 48.5 -4.5 l 1,2,-1
 48.5 724.94 l 1,3,-1
 490.5 228.94 l 1,4,-1
 490.5 705.5 l 1,5,-1
 597.5 705.5 l 1,6,-1
 597.5 -52.8605 l 1,7,-1
 154.5 442.14 l 1,0,-1
EndSplineSet
EndChar

StartChar: O
Encoding: 79 79 50
Width: 752
Flags: W
HStem: -10.5 89<318.562 422.633> 619.5 85<303.459 415.905>
VStem: 22.5 98<295.901 408.131> 628 102<296.976 403.903>
LayerCount: 2
Fore
SplineSet
553.491 530.571 m 0,0,1
 522.709 567.039 522.709 567.039 471.236 588.483 c 128,-1,2
 419.589 610 419.589 610 359.219 610 c 0,3,4
 243.311 610 243.311 610 186.655 532.125 c 128,-1,5
 130 454.251 130 454.251 130 349 c 0,6,7
 130 300.075 130 300.075 146.817 252.496 c 128,-1,8
 163.647 204.879 163.647 204.879 192.175 168.741 c 128,-1,9
 220.703 132.603 220.703 132.603 266.732 110.3 c 128,-1,10
 312.753 88 312.753 88 370.51 88 c 128,-1,11
 428.373 88 428.373 88 476.974 110.398 c 128,-1,12
 525.485 132.755 525.485 132.755 555.348 169.255 c 0,13,14
 618.5 246.444 618.5 246.444 618.5 350 c 128,-1,15
 618.5 453.556 618.5 453.556 553.491 530.571 c 0,0,1
715.529 480.094 m 128,-1,17
 739.5 414.109 739.5 414.109 739.5 345.5 c 128,-1,18
 739.5 276.832 739.5 276.832 714.988 211.292 c 128,-1,19
 690.466 145.724 690.466 145.724 645.412 94.4604 c 128,-1,20
 600.242 43.0636 600.242 43.0636 527.838 11.5186 c 128,-1,21
 455.496 -20 455.496 -20 368.99 -20 c 128,-1,22
 282.382 -20 282.382 -20 212.979 11.5952 c 128,-1,23
 143.513 43.2196 143.513 43.2196 100.857 95.2334 c 0,24,25
 13 202.365 13 202.365 13 347.268 c 128,-1,26
 13 492.154 13 492.154 99.1782 598.549 c 0,27,28
 141.433 650.717 141.433 650.717 209.429 682.382 c 128,-1,29
 277.323 714 277.323 714 364.952 714 c 128,-1,30
 452.476 714 452.476 714 526.269 682.006 c 128,-1,31
 600.246 649.932 600.246 649.932 645.872 598.085 c 128,-1,16
 691.499 546.238 691.499 546.238 715.529 480.094 c 128,-1,17
EndSplineSet
EndChar

StartChar: P
Encoding: 80 80 51
Width: 506
Flags: W
HStem: 1 21G<63 144> 304 83.75<144 288.063> 618.25 73.75<143.92 294.992>
VStem: 63 81<1 304 387.75 618.25> 362.58 77.92<465.806 542.801>
LayerCount: 2
Fore
SplineSet
358.94 672.115 m 128,-1,1
 407.381 642.63 407.381 642.63 428.69 597.374 c 128,-1,2
 450 552.118 450 552.118 450 499 c 128,-1,3
 450 445.758 450 445.758 427.129 400.016 c 128,-1,4
 404.258 354.274 404.258 354.274 354.387 324.353 c 128,-1,5
 304.629 294.5 304.629 294.5 236 294.5 c 2,6,-1
 153.5 294.5 l 1,7,-1
 153.5 -8.5 l 1,8,-1
 53.5 -8.5 l 1,9,-1
 53.5 701.5 l 1,10,-1
 246 701.5 l 2,11,0
 310.663 701.5 310.663 701.5 358.94 672.115 c 128,-1,1
153.42 608.75 m 1,12,-1
 153.42 397.25 l 1,13,-1
 255.05 397.25 l 2,14,15
 285.022 397.25 285.022 397.25 307.403 412.636 c 0,16,17
 353.08 444.039 353.08 444.039 353.08 504.336 c 128,-1,18
 353.08 564.633 353.08 564.633 313.791 593.063 c 0,19,20
 292.113 608.75 292.113 608.75 261.23 608.75 c 2,21,-1
 153.42 608.75 l 1,12,-1
EndSplineSet
EndChar

StartChar: Q
Encoding: 81 81 52
Width: 763
Flags: W
HStem: -10.26 87.82<288.744 439.978> 615.67 87.78<287.826 456.007>
VStem: 13.65 88.11<262.808 430.339> 642.02 88.16<269.256 430.339>
LayerCount: 2
Fore
SplineSet
739.68 346.58 m 0,0,1
 739.68 219.832 739.68 219.832 661.17 120.832 c 1,2,-1
 728.18 46.7434 l 1,3,-1
 634.179 -30.6891 l 1,4,-1
 572.549 39.8325 l 1,5,6
 481.751 -19.76 481.751 -19.76 377.036 -19.76 c 128,-1,7
 272.321 -19.76 272.321 -19.76 187.555 29.3812 c 128,-1,8
 102.816 78.5067 102.816 78.5067 53.4907 162.919 c 128,-1,9
 4.15 247.356 4.15 247.356 4.15 346.58 c 128,-1,10
 4.15 445.814 4.15 445.814 53.4907 530.251 c 128,-1,11
 102.816 614.662 102.816 614.662 187.555 663.798 c 128,-1,12
 272.321 712.95 272.321 712.95 371.91 712.95 c 128,-1,13
 471.502 712.95 471.502 712.95 556.275 663.799 c 128,-1,14
 640.994 614.679 640.994 614.679 690.322 530.263 c 128,-1,15
 739.68 445.797 739.68 445.797 739.68 346.58 c 0,0,1
371.91 606.17 m 128,-1,17
 263.662 606.17 263.662 606.17 187.458 530.261 c 128,-1,18
 111.26 454.358 111.26 454.358 111.26 346.58 c 128,-1,19
 111.26 238.8 111.26 238.8 187.45 162.934 c 128,-1,20
 263.648 87.06 263.648 87.06 371.91 87.06 c 0,21,22
 442.023 87.06 442.023 87.06 501.44 121.12 c 1,23,-1
 429.482 202.481 l 1,24,-1
 521.459 276.525 l 1,25,-1
 588.287 201.569 l 1,26,27
 632.52 266.393 632.52 266.393 632.52 346.546 c 0,28,29
 632.52 454.37 632.52 454.37 556.35 530.266 c 128,-1,16
 480.172 606.17 480.172 606.17 371.91 606.17 c 128,-1,17
EndSplineSet
EndChar

StartChar: R
Encoding: 82 82 53
Width: 489
Flags: W
HStem: 0 21G<52 141 423 524> 313 81<141 279.352> 618 83<141 287.817>
VStem: 49 92<394 618> 52 89<0 313>
LayerCount: 2
Fore
SplineSet
353.081 690.079 m 0,0,1
 433.002 652.062 433.002 652.062 454.755 558.143 c 0,2,3
 460.639 532.74 460.639 532.74 460.639 511.682 c 128,-1,4
 460.639 490.766 460.639 490.766 455.854 461.671 c 128,-1,5
 451.069 432.575 451.069 432.575 428.159 396.215 c 128,-1,6
 405.249 359.855 405.249 359.855 372.201 337.549 c 1,7,-1
 539.111 -9.5 l 1,8,-1
 417.027 -9.5 l 1,9,-1
 266.246 304.044 l 1,10,11
 257.185 303.5 257.185 303.5 246 303.5 c 1,12,-1
 150.5 303.5 l 1,13,-1
 150.5 -9.5 l 1,14,-1
 39.4786 -9.5 l 1,15,-1
 39.4786 710.5 l 1,16,-1
 256 710.5 l 2,17,18
 310.151 710.5 310.151 710.5 353.081 690.079 c 0,0,1
150.5 608.5 m 1,19,-1
 150.5 403.5 l 1,20,-1
 250 403.5 l 1,21,22
 278.027 403.5 278.027 403.5 299.704 419.5 c 0,23,24
 344.5 452.564 344.5 452.564 344.5 508.148 c 0,25,26
 344.5 565.416 344.5 565.416 305.933 593.301 c 0,27,28
 284.913 608.5 284.913 608.5 255 608.5 c 2,29,-1
 150.5 608.5 l 1,19,-1
EndSplineSet
EndChar

StartChar: S
Encoding: 83 83 54
Width: 528
Flags: W
HStem: 626 79<216.8 317.329>
VStem: 65.5608 94.4392<530.349 585.849>
LayerCount: 2
Fore
SplineSet
380.397 578.707 m 1,0,1
 331.614 616.5 331.614 616.5 248.024 616.5 c 0,2,3
 216.16 616.5 216.16 616.5 192.549 590.922 c 128,-1,4
 168.938 565.343 168.938 565.343 168.938 538.986 c 128,-1,5
 168.938 512.629 168.938 512.629 189.851 484.877 c 128,-1,6
 210.86 456.998 210.86 456.998 261.156 438.96 c 2,7,-1
 342.15 410.962 l 2,8,9
 406.622 387.928 406.622 387.928 454.061 333.248 c 128,-1,10
 501.5 278.568 501.5 278.568 501.5 202.5 c 0,11,12
 501.5 159.856 501.5 159.856 480.577 115.915 c 0,13,14
 418.641 -14.158 418.641 -14.158 250.519 -14.158 c 0,15,16
 181.532 -14.158 181.532 -14.158 116.146 6.43891 c 0,17,18
 88.6057 15.1142 88.6057 15.1142 76.9761 20.3964 c 2,19,-1
 25.3774 46.824 l 1,20,-1
 46.8973 162.793 l 1,21,22
 181.233 97.5 181.233 97.5 257.5 97.5 c 0,23,24
 288.792 97.5 288.792 97.5 320.619 113.178 c 128,-1,25
 352.446 128.856 352.446 128.856 369.66 155.082 c 128,-1,26
 386.809 181.209 386.809 181.209 386.809 203.259 c 128,-1,27
 386.809 225.309 386.809 225.309 378.38 243.507 c 0,28,29
 359.644 283.954 359.644 283.954 308.663 303.112 c 0,30,31
 292.747 309.093 292.747 309.093 265.987 320.47 c 128,-1,32
 239.226 331.848 239.226 331.848 229.168 334.934 c 0,33,34
 163.475 355.087 163.475 355.087 122.291 390.674 c 0,35,36
 54.4853 449.264 54.4853 449.264 54.4853 530.077 c 0,37,38
 54.4853 587.319 54.4853 587.319 82.5136 628.554 c 0,39,40
 141.002 714.601 141.002 714.601 258.211 714.601 c 0,41,42
 316.149 714.601 316.149 714.601 355.19 705.5 c 0,43,44
 395.367 696.134 395.367 696.134 436.848 660.929 c 1,45,-1
 380.397 578.707 l 1,0,1
EndSplineSet
EndChar

StartChar: T
Encoding: 84 84 55
Width: 490
Flags: W
HStem: 0 21G<198 203 198 288> 609 77<16 203 288 474>
VStem: 203 85<0 609>
LayerCount: 2
Fore
SplineSet
6.5 695.5 m 1,0,-1
 483.5 695.5 l 1,1,-1
 483.5 599.5 l 1,2,-1
 297.5 599.5 l 1,3,-1
 297.5 -9.5 l 1,4,-1
 193.5 -9.5 l 1,5,-1
 193.5 599.5 l 1,6,-1
 6.5 599.5 l 1,7,-1
 6.5 695.5 l 1,0,-1
EndSplineSet
EndChar

StartChar: U
Encoding: 85 85 56
Width: 592
Flags: W
HStem: 0 88<258.078 327.825>
VStem: 52 93<216.811 683> 444 91<218.806 682>
LayerCount: 2
Fore
SplineSet
167.363 192.42 m 128,-1,1
 180.192 159.165 180.192 159.165 199.374 139.057 c 0,2,3
 239.017 97.5 239.017 97.5 292.782 97.5 c 128,-1,4
 346.547 97.5 346.547 97.5 390.023 142.001 c 128,-1,5
 433.5 186.503 433.5 186.503 433.5 270 c 2,6,-1
 433.5 310.242 l 1,7,-1
 434.5 308.242 l 1,8,-1
 434.5 691.5 l 1,9,-1
 544.5 691.5 l 1,10,-1
 544.5 265 l 2,11,12
 544.5 67.9296 544.5 67.9296 387.889 8.12508 c 0,13,14
 341.734 -9.5 341.734 -9.5 293.381 -9.5 c 128,-1,15
 245.028 -9.5 245.028 -9.5 199.234 10.2786 c 0,16,17
 98.9523 53.59 98.9523 53.59 62.6264 148.608 c 0,18,19
 42.5 201.253 42.5 201.253 42.5 264 c 2,20,-1
 42.5 694.609 l 1,21,-1
 154.5 694.609 l 1,22,-1
 154.5 266 l 2,23,0
 154.5 225.765 154.5 225.765 167.363 192.42 c 128,-1,1
EndSplineSet
EndChar

StartChar: V
Encoding: 86 86 57
Width: 675
Flags: W
LayerCount: 2
Fore
SplineSet
577.48 741.943 m 1,0,-1
 665.334 697.398 l 1,1,-1
 329.793 -60.947 l 1,2,-1
 9.67165 697.782 l 1,3,-1
 102.908 740.719 l 1,4,-1
 331.315 204.501 l 1,5,-1
 577.48 741.943 l 1,0,-1
EndSplineSet
EndChar

StartChar: W
Encoding: 87 87 58
Width: 842
Flags: W
LayerCount: 2
Fore
SplineSet
436.808 345.363 m 1,0,-1
 269.002 -47.5219 l 1,1,-1
 14.7904 698.376 l 1,2,-1
 120.186 728.662 l 1,3,-1
 275.254 253.765 l 1,4,-1
 411.766 568.5 l 1,5,-1
 456.245 568.5 l 1,6,-1
 591.98 254.315 l 1,7,-1
 755.08 730.025 l 1,8,-1
 850.062 697.954 l 1,9,-1
 596.813 -46.0965 l 1,10,-1
 436.808 345.363 l 1,0,-1
EndSplineSet
EndChar

StartChar: X
Encoding: 88 88 59
Width: 694
Flags: W
LayerCount: 2
Fore
SplineSet
682.098 19.5996 m 1,0,-1
 593.035 -47.5723 l 1,1,-1
 347.048 292.946 l 1,2,-1
 111.894 -35.7852 l 1,3,-1
 15.499 13 l 1,4,-1
 280.446 389.869 l 1,5,-1
 61.5508 685.542 l 1,6,-1
 167.715 744.139 l 1,7,-1
 349.114 493.083 l 1,8,-1
 532.932 739.868 l 1,9,-1
 625.677 684.984 l 5,10,-1
 415.414 395.065 l 1,11,-1
 682.098 19.5996 l 1,0,-1
EndSplineSet
EndChar

StartChar: Y
Encoding: 89 89 60
Width: 616
Flags: W
VStem: 255 99<3 330>
LayerCount: 2
Fore
SplineSet
2.50419 695.164 m 1,0,-1
 94.9578 748.69 l 1,1,-1
 304 435.126 l 1,2,-1
 513.062 748.72 l 1,3,-1
 611.507 694.119 l 1,4,-1
 363.5 331.12 l 1,5,-1
 363.5 -4.5 l 1,6,-1
 245.5 -4.5 l 1,7,-1
 245.5 328.644 l 1,8,-1
 2.50419 695.164 l 1,0,-1
EndSplineSet
EndChar

StartChar: Z
Encoding: 90 90 61
Width: 617
Flags: W
HStem: 0 88<210 594> 602 80<131 446>
LayerCount: 2
Fore
SplineSet
124.099 691.5 m 1,0,-1
 618.627 691.5 l 1,1,-1
 227.626 97.5 l 1,2,-1
 603.5 97.5 l 1,3,-1
 603.5 -9.5 l 1,4,-1
 21.1098 -9.5 l 1,5,-1
 428.11 592.5 l 1,6,-1
 91.9234 592.5 l 1,7,-1
 124.099 691.5 l 1,0,-1
EndSplineSet
EndChar

StartChar: bracketleft
Encoding: 91 91 62
Width: 327
Flags: W
HStem: 0 80<142 286> 622 80<142 284>
VStem: 62 80<80 622> 62 224<0 80 622 702>
LayerCount: 2
Fore
SplineSet
52.5 -9.5 m 1,0,-1
 52.5 711.5 l 1,1,-1
 293.5 711.5 l 1,2,-1
 293.5 612.5 l 1,3,-1
 151.5 612.5 l 1,4,-1
 151.5 89.5 l 1,5,-1
 295.5 89.5 l 1,6,-1
 295.5 -9.5 l 1,7,-1
 52.5 -9.5 l 1,0,-1
EndSplineSet
EndChar

StartChar: backslash
Encoding: 92 92 63
Width: 382
Flags: W
HStem: 0 21G<286 366> 682 20G<19 99>
VStem: 19 347<0 702>
LayerCount: 2
Fore
SplineSet
279.449 -9.5 m 1,0,-1
 5.22287 711.5 l 1,1,-1
 105.551 711.5 l 1,2,-1
 379.777 -9.5 l 1,3,-1
 279.449 -9.5 l 1,0,-1
EndSplineSet
EndChar

StartChar: bracketright
Encoding: 93 93 64
Width: 327
Flags: W
HStem: 0 80<62 206> 622 80<64 206>
VStem: 62 224<0 80 622 702> 206 80<80 622>
LayerCount: 2
Fore
SplineSet
295.5 -9.5 m 1,0,-1
 52.5 -9.5 l 1,1,-1
 52.5 89.5 l 1,2,-1
 196.5 89.5 l 1,3,-1
 196.5 612.5 l 1,4,-1
 54.5 612.5 l 1,5,-1
 54.5 711.5 l 1,6,-1
 295.5 711.5 l 1,7,-1
 295.5 -9.5 l 1,0,-1
EndSplineSet
EndChar

StartChar: asciicircum
Encoding: 94 94 65
Width: 605
Flags: W
HStem: 530 204<309 448>
VStem: 157 291<530 530>
LayerCount: 2
Fore
SplineSet
465.968 520.5 m 1,0,-1
 368.111 520.5 l 1,1,-1
 307.664 605.126 l 1,2,-1
 241.638 520.5 l 1,3,-1
 138.074 520.5 l 1,4,-1
 309.346 750.364 l 1,5,-1
 465.968 520.5 l 1,0,-1
EndSplineSet
EndChar

StartChar: underscore
Encoding: 95 95 66
Width: 559
Flags: W
HStem: -82 82<48 511>
LayerCount: 2
Fore
SplineSet
520.5 9.5 m 1,0,-1
 520.5 -91.5 l 1,1,-1
 38.5 -91.5 l 1,2,-1
 38.5 9.5 l 1,3,-1
 520.5 9.5 l 1,0,-1
EndSplineSet
EndChar

StartChar: grave
Encoding: 193 96 67
Width: 1000
Flags: W
HStem: 791 194<461 551>
VStem: 399 202<838 912>
LayerCount: 2
Fore
SplineSet
460.596 999.199 m 1,0,-1
 614.553 837.545 l 1,1,-1
 551.469 781.14 l 1,2,-1
 385.381 910.639 l 1,3,-1
 460.596 999.199 l 1,0,-1
EndSplineSet
EndChar

StartChar: a
Encoding: 97 97 68
Width: 393
Flags: W
HStem: -24.9497 88.2108<113.12 246.633> 208.229 83.8008<113.099 255.294>
VStem: 18.4799 82.2406<71.2841 193.368>
LayerCount: 2
Fore
SplineSet
77.0617 392.072 m 1,0,1
 130.428 437.518 130.428 437.518 214.715 437.518 c 0,2,3
 248.964 437.518 248.964 437.518 282.882 425.486 c 0,4,5
 336.705 406.393 336.705 406.393 358.592 357.984 c 128,-1,6
 380.48 309.574 380.48 309.574 380.48 267.9 c 2,7,-1
 380.48 -9.5 l 1,8,-1
 274 -9.5 l 1,9,-1
 274 23.5273 l 1,10,11
 240.994 -19.5098 240.994 -19.5098 190.55 -19.5098 c 0,12,13
 109.484 -19.5098 109.484 -19.5098 59.6615 16.587 c 0,14,15
 12.5 50.7556 12.5 50.7556 12.5 127 c 0,16,17
 12.5 195.761 12.5 195.761 51.9888 231.424 c 0,18,19
 111.312 285 111.312 285 202.223 284 c 0,20,21
 258.016 284 258.016 284 278.05 244.33 c 5,22,23
 278.05 303.341 278.05 303.341 263.917 314.676 c 0,24,25
 201.757 364.53 201.757 364.53 117.588 330.047 c 1,26,-1
 77.0617 392.072 l 1,0,1
278.9 133.917 m 1,27,28
 270.679 198.217 270.679 198.217 187.999 198.217 c 128,-1,29
 105.32 198.217 105.32 198.217 105.32 130.635 c 0,30,31
 105.32 73.2734 105.32 73.2734 187.549 73.2734 c 128,-1,32
 269.975 73.2734 269.975 73.2734 278.9 133.917 c 1,27,28
EndSplineSet
EndChar

StartChar: b
Encoding: 98 98 69
Width: 520
Flags: W
HStem: -10.4 80.07<194.561 342.175> 342.74 76.66<173.696 342.968> 728 20G<44 137>
VStem: 44 92.77<0 36.39 366.97 748> 357.36 90.64<87.871 324.536>
LayerCount: 2
Fore
SplineSet
247.38 -19.9 m 0,0,1
 192.467 -19.9 192.467 -19.9 146.27 15.7766 c 1,2,-1
 146.27 -9.5 l 1,3,-1
 34.5 -9.5 l 1,4,-1
 34.5 757.5 l 1,5,-1
 146.5 757.5 l 1,6,-1
 146.5 396.48 l 1,7,8
 179.385 428.9 179.385 428.9 247.38 428.9 c 0,9,10
 457.5 428.9 457.5 428.9 457.5 204.5 c 128,-1,11
 457.5 -19.9 457.5 -19.9 247.38 -19.9 c 0,0,1
243.44 79.17 m 0,12,13
 347.86 79.17 347.86 79.17 347.86 206.205 c 128,-1,14
 347.86 333.24 347.86 333.24 249.42 333.24 c 0,15,16
 141.78 333.24 141.78 333.24 141.78 206.205 c 128,-1,17
 141.78 79.17 141.78 79.17 243.44 79.17 c 0,12,13
EndSplineSet
EndChar

StartChar: c
Encoding: 99 99 70
Width: 370
Flags: W
HStem: -10.25 84.7617<171.238 305.471> 354.599 82.7614<140.906 281.916>
VStem: 14.22 82.3435<69.2633 328.736>
LayerCount: 2
Fore
SplineSet
367.803 28.3291 m 0,0,1
 322.357 -19.4403 322.357 -19.4403 225.526 -19.4403 c 0,2,3
 185.66 -19.4403 185.66 -19.4403 143.467 -4.1776 c 0,4,5
 60.765 25.7384 60.765 25.7384 23.8915 110.9 c 0,6,7
 4.72 155.178 4.72 155.178 4.72 208.88 c 0,8,9
 4.72 311.818 4.72 311.818 63.399 379.309 c 128,-1,10
 122.078 446.8 122.078 446.8 223.344 446.8 c 128,-1,11
 324.611 446.8 324.611 446.8 373.572 392.947 c 1,12,-1
 321.803 311.486 l 1,13,14
 295.5 354 295.5 354 215.23 345.099 c 0,15,16
 168.703 339.94 168.703 339.94 137.383 304.627 c 128,-1,17
 106.063 269.315 106.063 269.315 106.063 205.723 c 0,18,19
 106.063 171.111 106.063 171.111 118.419 145.697 c 128,-1,20
 130.774 120.282 130.774 120.282 149.168 108.04 c 0,21,22
 185.27 84.0117 185.27 84.0117 215.304 84.0117 c 0,23,24
 292.39 84.0117 292.39 84.0117 322.345 112.822 c 1,25,-1
 367.803 28.3291 l 0,0,1
EndSplineSet
EndChar

StartChar: d
Encoding: 100 100 71
Width: 515
Flags: W
HStem: -12.7949 95.4941<111.653 336.749> 343.457 92.338<111.942 341.574>
VStem: 39.1807 103.403<43.1355 382.121> 349.5 112<-9.5 18.7314 410.388 757.5>
LayerCount: 2
Fore
SplineSet
247.357 435.795 m 0,0,1
 319.832 435.795 319.832 435.795 349.5 410.388 c 1,2,-1
 349.5 757.5 l 1,3,-1
 461.5 757.5 l 1,4,-1
 461.5 -9.5 l 1,5,-1
 348.979 -9.5 l 1,6,-1
 348.979 18.7314 l 1,7,8
 314.888 -12.7949 314.888 -12.7949 242.019 -12.7949 c 0,9,10
 39.1807 -12.7949 39.1807 -12.7949 39.1807 211.5 c 128,-1,11
 39.1807 435.795 39.1807 435.795 247.357 435.795 c 0,0,1
244.726 343.457 m 0,12,13
 142.584 343.457 142.584 343.457 142.584 214.578 c 0,14,15
 142.584 82.6992 142.584 82.6992 245.686 82.6992 c 0,16,17
 355.09 82.6992 355.09 82.6992 355.09 216.74 c 0,18,19
 355.09 343.457 355.09 343.457 244.726 343.457 c 0,12,13
EndSplineSet
EndChar

StartChar: e
Encoding: 101 101 72
Width: 416
Flags: W
HStem: -10.38 80.5402<176.611 273.57> 164.78 80.18<97.5996 327.72> 341.9 77.55<140.992 286.329>
VStem: 13.61 382.34<164.78 312.653 164.78 201.96>
LayerCount: 2
Fore
SplineSet
409.254 218.981 m 0,0,1
 409.254 187.958 409.254 187.958 404.234 155.28 c 1,2,-1
 108.234 155.28 l 1,3,4
 123.132 107.044 123.132 107.044 154.993 93.3495 c 128,-1,5
 186.853 79.655 186.853 79.655 217.805 79.655 c 0,6,7
 289.5 79.655 289.5 79.655 310.672 110.058 c 1,8,-1
 381.167 60.242 l 1,9,10
 326.26 -19.88 326.26 -19.88 213.95 -19.88 c 0,11,12
 127.134 -19.88 127.134 -19.88 84.4419 21.7751 c 128,-1,13
 41.7498 63.4301 41.7498 63.4301 22.9299 102.539 c 128,-1,14
 4.11 141.647 4.11 141.647 4.11 201.96 c 0,15,16
 4.11 297.577 4.11 297.577 62.689 363.263 c 128,-1,17
 121.268 428.95 121.268 428.95 210.928 428.95 c 128,-1,18
 300.605 428.95 300.605 428.95 365.434 355.395 c 0,19,20
 409.254 305.677 409.254 305.677 409.254 218.981 c 0,0,1
316.005 254.46 m 1,21,22
 296.851 332.4 296.851 332.4 217.191 332.4 c 128,-1,23
 137.53 332.4 137.53 332.4 110.493 254.46 c 1,24,-1
 316.005 254.46 l 1,21,22
EndSplineSet
EndChar

StartChar: f
Encoding: 102 102 73
Width: 333
Flags: W
HStem: 319.5 99<37.5 87.5 188.539 254.5>
VStem: 87.5 99<-9.5 319.5> 91.543 96.9961<418.5 516.533>
LayerCount: 2
Fore
SplineSet
91.543 420.5 m 5,0,1
 91.543 538.807 91.543 538.807 138.01 595.154 c 128,-1,2
 184.476 651.5 184.476 651.5 242.004 651.5 c 0,3,4
 302.174 651.5 302.174 651.5 330.495 623.9 c 1,5,-1
 273.287 534.511 l 1,6,-1
 250.664 546.487 l 1,7,8
 215.452 546.487 215.452 546.487 201.995 520.198 c 128,-1,9
 188.539 493.91 188.539 493.91 188.539 420.5 c 5,10,-1
 254.5 420.5 l 5,11,-1
 254.5 321.5 l 5,12,-1
 186.5 321.5 l 5,13,-1
 186.5 -9.5 l 1,14,-1
 87.5 -9.5 l 1,15,-1
 87.5 323.5 l 5,16,-1
 37.5 323.5 l 5,17,-1
 37.5 420.5 l 5,18,-1
 91.543 420.5 l 5,0,1
EndSplineSet
EndChar

StartChar: g
Encoding: 103 103 74
Width: 436
Flags: W
HStem: -205.02 83.02<182.782 267.325> 11 83<127.407 279.211> 333.92 86.08<127.894 261.671>
VStem: 29.4 84.6<110.271 316.555> 312 91<-68.13 55 108.671 318.101>
LayerCount: 2
Fore
SplineSet
221.072 324.443 m 0,0,1
 123.536 324.443 123.536 324.443 123.536 213.971 c 128,-1,2
 123.536 103.5 123.536 103.5 213.038 103.5 c 128,-1,3
 302.539 103.5 302.539 103.5 302.539 199.718 c 0,4,5
 302.539 324.443 302.539 324.443 221.072 324.443 c 0,0,1
62.5882 -60.6942 m 1,6,7
 174.433 -112.622 174.433 -112.622 213.076 -112.622 c 0,8,9
 302.5 -112.622 302.5 -112.622 302.5 -33.8421 c 2,10,-1
 302.5 27.8269 l 1,11,12
 272.025 0 272.025 0 209.264 0 c 0,13,14
 19.89 0 19.89 0 19.89 214.75 c 128,-1,15
 19.89 429.5 19.89 429.5 220.474 429.5 c 0,16,17
 262.539 429.5 262.539 429.5 299.5 387.13 c 1,18,-1
 299.5 412.5 l 5,19,-1
 412.5 412.5 l 1,20,-1
 412.5 0 l 2,21,22
 412.5 -109.691 412.5 -109.691 336.024 -171.345 c 0,23,24
 282.229 -214.714 282.229 -214.714 205.987 -214.714 c 128,-1,25
 129.744 -214.714 129.744 -214.714 79.0898 -184.132 c 2,26,-1
 18.5371 -147.572 l 1,27,-1
 62.5882 -60.6942 l 1,6,7
EndSplineSet
EndChar

StartChar: h
Encoding: 104 104 75
Width: 439
Flags: W
HStem: 0 21G<42.23 124.63 332.69 414.06> 339 86<198.116 266.469> 728 20G<42.23 126.69>
VStem: 42.23 82.4<0 262.655 368 748> 332.69 81.37<0 290.622>
LayerCount: 2
Fore
SplineSet
313.77 247 m 2,0,1
 313.77 348.5 313.77 348.5 226.6 348.5 c 128,-1,2
 139.43 348.5 139.43 348.5 139.43 247 c 2,3,-1
 139.43 -9.5 l 1,4,-1
 32.5801 -9.5 l 1,5,-1
 32.5801 757.5 l 1,6,-1
 141.49 757.5 l 1,7,-1
 141.49 412.986 l 1,8,9
 177.247 453.497 177.247 453.497 245.571 453.497 c 0,10,11
 341.737 453.497 341.737 453.497 380.148 392.613 c 128,-1,12
 418.56 331.729 418.56 331.729 418.56 277 c 2,13,-1
 418.56 -9.5 l 1,14,-1
 313.77 -9.5 l 1,15,-1
 313.77 247 l 2,0,1
EndSplineSet
EndChar

StartChar: i
Encoding: 105 105 76
Width: 207
Flags: W
HStem: 0 21G<61 151> 402 20G<59 151>
VStem: 59 92<0 422>
LayerCount: 2
Fore
SplineSet
107.513 472.5 m 128,-1,1
 84.5164 472.5 84.5164 472.5 65.0082 489.049 c 128,-1,2
 45.5 505.598 45.5 505.598 45.5 534.009 c 128,-1,3
 45.5 562.443 45.5 562.443 65.0268 578.721 c 128,-1,4
 84.5536 595 84.5536 595 107.399 595 c 128,-1,5
 130.244 595 130.244 595 149.872 579.833 c 128,-1,6
 169.5 564.666 169.5 564.666 169.5 535.599 c 128,-1,7
 169.5 506.708 169.5 506.708 150.044 489.604 c 128,-1,0
 130.587 472.5 130.587 472.5 107.513 472.5 c 128,-1,1
49.4548 431.5 m 1,8,-1
 160.5 431.5 l 5,9,-1
 160.5 -9.5 l 1,10,-1
 49.5449 -9.5 l 1,11,-1
 49.4548 431.5 l 1,8,-1
EndSplineSet
EndChar

StartChar: j
Encoding: 106 106 77
Width: 207
Flags: W
HStem: 402 20G<59 151>
VStem: 59 92<-116 422>
LayerCount: 2
Fore
SplineSet
109.513 472.5 m 128,-1,1
 86.5164 472.5 86.5164 472.5 67.0082 489.049 c 128,-1,2
 47.5 505.598 47.5 505.598 47.5 534.009 c 128,-1,3
 47.5 562.443 47.5 562.443 67.0268 578.721 c 128,-1,4
 86.5536 595 86.5536 595 109.399 595 c 128,-1,5
 132.244 595 132.244 595 151.872 579.833 c 128,-1,6
 171.5 564.666 171.5 564.666 171.5 535.599 c 128,-1,7
 171.5 506.708 171.5 506.708 152.044 489.604 c 128,-1,0
 132.587 472.5 132.587 472.5 109.513 472.5 c 128,-1,1
49.5 431.5 m 1,8,-1
 160.5 431.5 l 1,9,-1
 160.5 -125.5 l 1,10,-1
 49.5 -125.5 l 1,11,-1
 49.5 431.5 l 1,8,-1
EndSplineSet
EndChar

StartChar: k
Encoding: 107 107 78
Width: 490
Flags: W
HStem: 0 21G<50 142 359 477> 404 20G<329 447> 728 20G<50 143>
VStem: 50 93<0 216 238 748>
LayerCount: 2
Fore
SplineSet
152.5 261.086 m 1,0,-1
 325.077 433.5 l 1,1,-1
 469.853 433.5 l 5,2,-1
 264.403 227.002 l 1,3,-1
 499.863 -9.5 l 1,4,-1
 355.08 -9.5 l 1,5,-1
 151.5 193.102 l 1,6,-1
 151.5 -9.5 l 1,7,-1
 40.5 -9.5 l 1,8,-1
 40.5 757.5 l 1,9,-1
 152.5 757.5 l 1,10,-1
 152.5 261.086 l 1,0,-1
EndSplineSet
EndChar

StartChar: l
Encoding: 108 108 79
Width: 194
Flags: W
HStem: 0 21G<54.89 134.1>
VStem: 54.89 79.21<0 782>
LayerCount: 2
Fore
SplineSet
90.5996 -10.5 m 1,0,-1
 39.3896 -10.5 l 1,1,-1
 39.3896 791.5 l 1,2,-1
 147.6 791.5 l 1,3,-1
 147.6 -10.5 l 1,4,-1
 90.5996 -10.5 l 1,0,-1
EndSplineSet
EndChar

StartChar: m
Encoding: 109 109 80
Width: 696
Flags: W
HStem: 0 21G<47.19 131.55> 335 84.67<440.055 501.805> 341.45 82.55<168 296.526>
VStem: 47.19 84.36<0 324.59 352 410> 308.3 77.36<1.52588e-05 265.661> 552.39 84.38<1.52588e-05 249.981>
LayerCount: 2
Fore
SplineSet
646.27 223 m 2,0,-1
 646.27 -9.49998 l 1,1,-1
 539.89 -9.49998 l 1,2,-1
 539.89 215 l 2,3,4
 539.89 324.999 539.89 324.999 472.232 325.494 c 0,5,6
 471.411 325.5 471.411 325.5 470.789 325.5 c 0,7,8
 443.061 325.5 443.061 325.5 420.503 297.803 c 0,9,10
 398.16 270.372 398.16 270.372 398.16 215.023 c 2,11,-1
 398.16 -9.5 l 1,12,-1
 295.8 -9.5 l 1,13,-1
 295.8 215 l 2,14,15
 295.8 331.95 295.8 331.95 219.93 331.95 c 128,-1,16
 144.05 331.95 144.05 331.95 144.05 215 c 2,17,-1
 144.05 -9.5 l 1,18,-1
 37.69 -9.5 l 1,19,-1
 37.69 419.5 l 1,20,-1
 146.06 419.5 l 1,21,-1
 146.06 391.99 l 1,22,23
 174.303 433.5 174.303 433.5 220 433.5 c 0,24,25
 325.94 433.5 325.94 433.5 352.303 379.702 c 1,26,27
 391.382 429.17 391.382 429.17 473.49 429.17 c 0,28,29
 646.27 429.17 646.27 429.17 646.27 223 c 2,0,-1
EndSplineSet
EndChar

StartChar: n
Encoding: 110 110 81
Width: 414
Flags: W
HStem: 0 21G<296.65 376.5> 337 90.3<139.165 285.359>
VStem: 33.14 79.7<-3.05176e-05 322.208> 296.65 79.85<0 300.02>
LayerCount: 2
Fore
SplineSet
211 327.5 m 0,0,1
 126.34 327.5 126.34 327.5 126.34 226.06 c 2,2,-1
 126.34 -9.5 l 1,3,-1
 121.84 -9.5 l 1,4,-1
 28.14 -9.5 l 1,5,-1
 23.64 -9.5 l 1,6,-1
 23.64 419.5 l 1,7,-1
 123.02 419.5 l 1,8,-1
 123.02 396.976 l 1,9,10
 151.75 436.8 151.75 436.8 210.877 436.8 c 0,11,12
 386 436.8 386 436.8 386 226.06 c 2,13,-1
 386 -9.5 l 1,14,-1
 282.15 -9.5 l 1,15,-1
 282.15 226.06 l 2,16,17
 282.15 327.5 282.15 327.5 211 327.5 c 0,0,1
EndSplineSet
EndChar

StartChar: o
Encoding: 111 111 82
Width: 498
Flags: W
HStem: -12.6501 74.4<204.497 306.034> 356.61 76.17<207.68 294.406>
VStem: 16.7099 86.8601<167.676 250.014> 394.32 82.44<172.018 254.142>
LayerCount: 2
Fore
SplineSet
332.292 321.503 m 128,-1,1
 298.318 347.11 298.318 347.11 252.013 347.11 c 128,-1,2
 205.546 347.11 205.546 347.11 173.68 326.197 c 128,-1,3
 141.751 305.243 141.751 305.243 127.467 274.89 c 0,4,5
 113.07 244.299 113.07 244.299 113.07 208.667 c 128,-1,6
 113.07 172.983 113.07 172.983 126.774 142.093 c 0,7,8
 140.325 111.55 140.325 111.55 171.293 91.3918 c 128,-1,9
 202.237 71.2499 202.237 71.2499 245.047 71.2499 c 0,10,11
 311.186 71.2499 311.186 71.2499 349.459 113.637 c 0,12,13
 384.82 152.798 384.82 152.798 384.82 213.07 c 0,14,15
 384.82 237.392 384.82 237.392 375.507 266.943 c 0,16,0
 366.419 295.782 366.419 295.782 332.292 321.503 c 128,-1,1
460.291 98.4888 m 0,17,18
 434.215 46.3283 434.215 46.3283 377.44 12.0474 c 128,-1,19
 320.804 -22.1501 320.804 -22.1501 244.98 -22.1501 c 128,-1,20
 169.156 -22.1501 169.156 -22.1501 112.403 12.1117 c 0,21,22
 7.2099 75.6172 7.2099 75.6172 7.2099 210.57 c 0,23,24
 7.2099 341.458 7.2099 341.458 117.55 408.082 c 0,25,26
 174.186 442.28 174.186 442.28 250.031 442.28 c 128,-1,27
 325.899 442.28 325.899 442.28 381.569 408.02 c 128,-1,28
 437.391 373.668 437.391 373.668 461.894 321.973 c 0,29,30
 486.26 270.569 486.26 270.569 486.26 210.57 c 128,-1,31
 486.26 150.434 486.26 150.434 460.291 98.4888 c 0,17,18
EndSplineSet
EndChar

StartChar: p
Encoding: 112 112 83
Width: 447
Flags: W
HStem: -201 21G<38 118> -10 80.45<150.471 326.456> 348.55 71.45<164.023 326.524>
VStem: 38 80<-201 48 88.99 330.01 363 410> 343 85<88.99 330.01>
LayerCount: 2
Fore
SplineSet
127.5 13.7588 m 1,0,-1
 127.5 -210.5 l 1,1,-1
 28.5 -210.5 l 1,2,-1
 28.5 419.5 l 1,3,-1
 128.5 419.5 l 1,4,-1
 128.5 390.801 l 1,5,6
 164.608 429.5 164.608 429.5 219 429.5 c 0,7,8
 437.5 429.5 437.5 429.5 437.5 210 c 0,9,10
 437.5 -19.5 437.5 -19.5 212 -19.5 c 0,11,12
 156.531 -19.5 156.531 -19.5 127.5 13.7588 c 1,0,-1
218.92 79.95 m 0,13,14
 333.5 79.95 333.5 79.95 333.5 209.5 c 128,-1,15
 333.5 339.05 333.5 339.05 219.43 339.05 c 0,16,17
 128.46 339.05 128.46 339.05 128.46 209.5 c 128,-1,18
 128.46 79.95 128.46 79.95 218.92 79.95 c 0,13,14
EndSplineSet
EndChar

StartChar: q
Encoding: 113 113 84
Width: 450
Flags: W
HStem: -201 21G<341.26 420.87> -10.28 80.86<121.67 315.944> 339.33 80.74<121.615 309.587>
VStem: 23.64 80.31<88.564 321.485> 339.88 80.99<-201 -127.27 89.761 322.682 365.81 409.91>
LayerCount: 2
Fore
SplineSet
330.38 399.16 m 1,0,-1
 330.38 419.5 l 1,1,-1
 430.37 419.5 l 1,2,-1
 430.37 -210.5 l 1,3,-1
 331.76 -210.5 l 1,4,-1
 331.76 5.29086 l 1,5,6
 301.979 -19.7788 301.979 -19.7788 233.889 -19.7788 c 0,7,8
 14.14 -19.7788 14.14 -19.7788 14.14 204.896 c 128,-1,9
 14.14 429.57 14.14 429.57 240.18 429.57 c 0,10,11
 301.183 429.57 301.183 429.57 330.38 399.16 c 1,0,-1
236.85 80.08 m 0,12,13
 332.13 80.08 332.13 80.08 332.13 214.47 c 0,14,15
 332.13 329.83 332.13 329.83 236.47 329.83 c 0,16,17
 113.45 329.83 113.45 329.83 113.45 204.955 c 128,-1,18
 113.45 80.08 113.45 80.08 236.85 80.08 c 0,12,13
EndSplineSet
EndChar

StartChar: r
Encoding: 114 114 85
Width: 331
Flags: W
HStem: 0 21G<42 122> 405 20G<241.805 271>
VStem: 42 80<0 222.011 343 410>
LayerCount: 2
Fore
SplineSet
287.484 318.929 m 1,0,1
 258.938 327.158 258.938 327.158 226.958 319.779 c 128,-1,2
 194.977 312.4 194.977 312.4 176.988 293.026 c 128,-1,3
 159 273.651 159 273.651 145.25 243.79 c 128,-1,4
 131.5 213.93 131.5 213.93 131.5 189.02 c 2,5,-1
 131.5 -9.5 l 1,6,-1
 32.5 -9.5 l 1,7,-1
 32.5 419.5 l 1,8,-1
 132.5 419.5 l 5,9,-1
 132.5 378.245 l 1,10,-1
 147.282 392.177 l 2,11,12
 186.098 434.5 186.098 434.5 261.5 434.5 c 0,13,14
 287.176 434.5 287.176 434.5 319.307 419.5 c 1,15,-1
 289.014 322.437 l 1,16,-1
 287.484 318.929 l 1,0,1
EndSplineSet
EndChar

StartChar: s
Encoding: 115 115 86
Width: 329
Flags: W
HStem: -19.594 100.601<88.2683 234.739> 346.143 90.8804<149.792 223.656>
VStem: 220.994 108.133<68.0436 143.729>
LayerCount: 2
Fore
SplineSet
260.668 315.435 m 1,0,1
 219 346.5 219 346.5 180.205 346.143 c 0,2,3
 156.81 346.143 156.81 346.143 146.737 335.21 c 128,-1,4
 136.665 324.276 136.665 324.276 136.665 316.521 c 128,-1,5
 136.665 308.767 136.665 308.767 137.017 306.31 c 0,6,7
 140.994 278.582 140.994 278.582 216.626 254.199 c 128,-1,8
 292.258 229.816 292.258 229.816 314.695 180.629 c 0,9,10
 329.127 148.99 329.127 148.99 329.127 113.018 c 128,-1,11
 329.127 77.0459 329.127 77.0459 302.341 39.9669 c 0,12,13
 259.314 -19.594 259.314 -19.594 166.353 -19.594 c 0,14,15
 42.1012 -19.594 42.1012 -19.594 7.61719 70.5928 c 1,16,-1
 74.3431 137.803 l 1,17,18
 106.997 81.0067 106.997 81.0067 169.426 81.0067 c 0,19,20
 219.667 81.0067 219.667 81.0067 220.994 124.217 c 0,21,22
 221.005 124.575 221.005 124.575 221.005 125.099 c 0,23,24
 221.005 139.43 221.005 139.43 205.798 150.95 c 0,25,26
 191.221 161.993 191.221 161.993 140.872 182.262 c 0,27,28
 42.9639 223.286 42.9639 223.286 42.9639 330.689 c 0,29,30
 42.9639 373.075 42.9639 373.075 82.6104 406.714 c 0,31,32
 118.333 438.023 118.333 438.023 178.142 437.023 c 0,33,34
 213.153 437.023 213.153 437.023 249.437 420.094 c 0,35,36
 285 403.5 285 403.5 309.701 376.284 c 1,37,-1
 260.668 315.435 l 1,0,1
EndSplineSet
EndChar

StartChar: t
Encoding: 116 116 87
Width: 243
Flags: W
HStem: 0 21G<79.3 160.01> 336.5 90<22.43 79.3 162 219.86>
VStem: 82.28 79.72<0 336.5 426.5 596.26>
LayerCount: 2
Fore
SplineSet
174.5 420 m 5,0,-1
 229.36 420 l 5,1,-1
 229.36 311 l 5,2,-1
 172.51 311 l 5,3,-1
 172.51 -9.5 l 1,4,-1
 66.7998 -9.5 l 1,5,-1
 66.7998 312 l 5,6,-1
 12.9297 312 l 5,7,-1
 12.9297 420 l 5,8,-1
 69.7803 420 l 5,9,-1
 69.7803 602.818 l 1,10,-1
 174.5 641.196 l 1,11,-1
 174.5 420 l 5,0,-1
EndSplineSet
EndChar

StartChar: u
Encoding: 117 117 88
Width: 394
Flags: W
HStem: -10.5 77.81<117.66 256.183>
VStem: 23 82<83.673 410> 288 76<87.131 410>
LayerCount: 2
Fore
SplineSet
170.475 -20.02 m 2,0,1
 13.5 -20.02 13.5 -20.02 13.5 199 c 2,2,-1
 13.5 419.5 l 1,3,-1
 114.5 419.5 l 1,4,-1
 114.5 190 l 2,5,6
 114.5 76.81 114.5 76.81 199.95 76.81 c 0,7,8
 273.5 76.81 273.5 76.81 273.5 216 c 2,9,-1
 273.5 419.5 l 5,10,-1
 373.5 419.5 l 1,11,-1
 373.5 -9.5 l 1,12,-1
 270.5 -9.5 l 1,13,-1
 270.5 6.01162 l 1,14,15
 241.043 -20.02 241.043 -20.02 174.441 -20.02 c 2,16,-1
 170.475 -20.02 l 2,0,1
EndSplineSet
EndChar

StartChar: v
Encoding: 118 118 89
Width: 395
Flags: W
HStem: -41.94 467.5<188.11 302.94>
VStem: -2.24999 388.3<400.65 401.53>
LayerCount: 2
Fore
SplineSet
399.173 407.625 m 1,0,-1
 187.949 -65.6091 l 1,1,-1
 -15.2836 406.909 l 1,2,-1
 83.7391 434.226 l 1,3,-1
 90.0336 431.196 l 1,4,-1
 93.4885 428.102 l 1,5,-1
 189.55 199.739 l 1,6,-1
 297.698 436.964 l 1,7,-1
 399.173 407.625 l 1,0,-1
EndSplineSet
EndChar

StartChar: w
Encoding: 119 119 90
Width: 608
Flags: W
HStem: -33.08 455.93<77.01 388.67>
LayerCount: 2
Fore
SplineSet
0.290758 401.728 m 1,0,-1
 96.1509 434.661 l 1,1,-1
 202.177 196.494 l 1,2,-1
 302.42 419.5 l 1,3,-1
 402.8 196.189 l 1,4,-1
 512.254 434.388 l 1,5,-1
 604.506 401.631 l 1,6,-1
 402.95 -56.0137 l 1,7,-1
 302.42 157.922 l 1,8,-1
 201.89 -56.0137 l 1,9,-1
 0.290758 401.728 l 1,0,-1
EndSplineSet
EndChar

StartChar: x
Encoding: 120 120 91
Width: 400
Flags: W
HStem: -18.79 444.39<273.08 302.78>
VStem: 0.679993 376.14<24.44 25.39>
LayerCount: 2
Fore
SplineSet
140.27 228.316 m 1,0,-1
 19.2577 403.512 l 1,1,-1
 131.648 435.775 l 1,2,-1
 202.866 320.863 l 1,3,-1
 279.197 436.988 l 1,4,-1
 378.132 402.869 l 1,5,-1
 262.953 229.2 l 1,6,-1
 402.26 22.2461 l 1,7,-1
 309.693 -31.5683 l 1,8,-1
 201.773 136.575 l 1,9,-1
 95.7463 -31.2252 l 1,10,-1
 -3.22744 21.0414 l 1,11,-1
 140.27 228.316 l 1,0,-1
EndSplineSet
EndChar

StartChar: y
Encoding: 121 121 92
Width: 450
Flags: W
VStem: 4.01001 409.56<401.5 402.34>
LayerCount: 2
Fore
SplineSet
146.582 72.0534 m 1,0,-1
 -9.04252 407.048 l 1,1,-1
 94.7258 442.829 l 1,2,-1
 206.971 198.019 l 1,3,-1
 330.806 443.931 l 1,4,-1
 426.654 407.533 l 1,5,-1
 133.057 -196.93 l 1,6,-1
 6.24846 -196.93 l 1,7,-1
 146.582 72.0534 l 1,0,-1
EndSplineSet
EndChar

StartChar: z
Encoding: 122 122 93
Width: 416
Flags: W
HStem: 0 86<175 403> 332 82<92 246>
VStem: 10 393<0 86>
LayerCount: 2
Fore
SplineSet
55.3209 322.5 m 1,0,-1
 84.882 423.5 l 1,1,-1
 414.902 423.5 l 1,2,-1
 192.902 95.5 l 1,3,-1
 412.5 95.5 l 1,4,-1
 412.5 -9.5 l 1,5,-1
 -8.40861 -9.5 l 1,6,-1
 227.591 322.5 l 1,7,-1
 55.3209 322.5 l 1,0,-1
EndSplineSet
EndChar

StartChar: asciitilde
Encoding: 126 126 94
Width: 496
Flags: W
HStem: 500 98<155 369>
VStem: 150 224<535.604 562.396 546 552>
LayerCount: 2
Fore
SplineSet
378.5 612.725 m 1,0,-1
 378.5 598.871 l 1,1,2
 385.167 582.15 385.167 582.15 385.167 569.989 c 0,3,4
 385.167 530.063 385.167 530.063 356.383 511.665 c 128,-1,5
 327.598 493.267 327.598 493.267 305.526 493.267 c 0,6,7
 247.474 493.267 247.474 493.267 229.641 543.441 c 1,8,-1
 286.895 572.069 l 1,9,-1
 288.513 567.1 l 2,10,11
 292.966 553.423 292.966 553.423 303.433 553.423 c 128,-1,12
 313.9 553.423 313.9 553.423 318.182 557.908 c 128,-1,13
 322.463 562.393 322.463 562.393 322.463 566.603 c 1,14,15
 319.798 575.577 319.798 575.577 309.749 581.623 c 1,16,-1
 378.5 612.725 l 1,0,-1
145.5 485.275 m 1,17,-1
 145.5 499.129 l 1,18,19
 138.833 515.85 138.833 515.85 138.833 528.011 c 0,20,21
 138.833 567.937 138.833 567.937 167.618 586.335 c 128,-1,22
 196.403 604.733 196.403 604.733 218.474 604.733 c 0,23,24
 276.526 604.733 276.526 604.733 294.359 554.559 c 1,25,-1
 237.105 525.931 l 1,26,-1
 235.487 530.9 l 2,27,28
 231.034 544.577 231.034 544.577 220.568 544.577 c 128,-1,29
 210.101 544.577 210.101 544.577 205.818 540.092 c 128,-1,30
 201.536 535.607 201.536 535.607 201.536 531.396 c 1,31,32
 204.201 522.422 204.201 522.422 214.251 516.378 c 1,33,-1
 145.5 485.275 l 1,17,-1
EndSplineSet
EndChar

StartChar: exclamdown
Encoding: 161 161 95
Width: 238
Flags: W
HStem: 0 21G<68 148> 676 20G<101.665 116.335>
VStem: 68 80<0 441>
LayerCount: 2
Fore
SplineSet
58.5 -9.5 m 1,0,-1
 58.5 450.5 l 1,1,-1
 157.5 450.5 l 1,2,-1
 157.5 -9.5 l 1,3,-1
 58.5 -9.5 l 1,0,-1
109 566 m 128,-1,5
 83.4299 566 83.4299 566 62.465 584.344 c 128,-1,6
 41.5 602.689 41.5 602.689 41.5 634.392 c 128,-1,7
 41.5 666.095 41.5 666.095 62.3615 685.797 c 128,-1,8
 83.223 705.5 83.223 705.5 109 705.5 c 128,-1,9
 134.862 705.5 134.862 705.5 155.623 685.31 c 128,-1,10
 176.5 665.008 176.5 665.008 176.5 632.751 c 128,-1,11
 176.5 600.495 176.5 600.495 155.444 583.247 c 128,-1,4
 134.388 566 134.388 566 109 566 c 128,-1,5
EndSplineSet
EndChar

StartChar: yen
Encoding: 165 165 96
Width: 604
Flags: W
HStem: 112.02 87.99<48.2 256.04 355.43 551.21> 292.02 87.99<45.16 223.74 385.62 548.21> 672 20G<16.07 122.5 483.95 590.38>
VStem: 256.04 99.39<1.52588e-05 112.02 200.01 292.02>
LayerCount: 2
Fore
SplineSet
-1.6656 701.5 m 1,0,-1
 127.583 701.5 l 1,1,-1
 305.161 435.264 l 1,2,-1
 478.804 701.5 l 1,3,-1
 607.978 701.5 l 1,4,-1
 403.218 389.51 l 1,5,-1
 557.71 389.51 l 1,6,-1
 557.71 282.52 l 1,7,-1
 364.93 282.52 l 1,8,-1
 364.93 209.51 l 1,9,-1
 560.71 209.51 l 1,10,-1
 560.71 102.52 l 1,11,-1
 364.93 102.52 l 1,12,-1
 364.93 -9.49998 l 1,13,-1
 246.54 -9.49998 l 1,14,-1
 246.54 102.52 l 1,15,-1
 38.7 102.52 l 1,16,-1
 38.7 209.51 l 1,17,-1
 246.54 209.51 l 1,18,-1
 246.54 282.52 l 1,19,-1
 35.66 282.52 l 1,20,-1
 35.66 389.51 l 1,21,-1
 206.004 389.51 l 1,22,-1
 -1.6656 701.5 l 1,0,-1
EndSplineSet
EndChar

StartChar: diaeresis
Encoding: 200 168 97
Width: 413
Flags: W
HStem: 740 119<94.4 151.6 281.4 338.6>
VStem: 65 116<764.306 835.1> 252 116<764.306 835.1>
LayerCount: 2
Fore
SplineSet
123 868.5 m 128,-1,1
 148.439 868.5 148.439 868.5 169.082 851.298 c 0,2,3
 190.5 833.45 190.5 833.45 190.5 802 c 0,4,5
 190.5 768.823 190.5 768.823 169.42 749.497 c 0,6,7
 148.699 730.5 148.699 730.5 123 730.5 c 128,-1,8
 97.388 730.5 97.388 730.5 76.6885 748.9 c 0,9,10
 55.5 767.734 55.5 767.734 55.5 800 c 0,11,12
 55.5 831.266 55.5 831.266 76.6885 850.1 c 0,13,0
 97.3879 868.5 97.3879 868.5 123 868.5 c 128,-1,1
310 868.5 m 128,-1,15
 335.439 868.5 335.439 868.5 356.082 851.298 c 0,16,17
 377.5 833.45 377.5 833.45 377.5 802 c 0,18,19
 377.5 768.823 377.5 768.823 356.42 749.497 c 0,20,21
 335.699 730.5 335.699 730.5 310 730.5 c 128,-1,22
 284.388 730.5 284.388 730.5 263.688 748.9 c 0,23,24
 242.5 767.734 242.5 767.734 242.5 800 c 0,25,26
 242.5 831.266 242.5 831.266 263.688 850.1 c 0,27,14
 284.388 868.5 284.388 868.5 310 868.5 c 128,-1,15
EndSplineSet
EndChar

StartChar: guillemotleft
Encoding: 171 171 98
Width: 515
Flags: W
HStem: 138 292<237 444>
VStem: 33 411<292 428>
LayerCount: 2
Fore
SplineSet
463.5 446.018 m 5,0,-1
 463.5 335.969 l 5,1,-1
 392.294 287.586 l 5,2,-1
 463.5 233.726 l 5,3,-1
 463.5 119.093 l 5,4,-1
 234.652 289.32 l 5,5,-1
 463.5 446.018 l 5,0,-1
246.5 447.896 m 1,6,-1
 246.5 339.022 l 1,7,-1
 175.292 289.724 l 1,8,-1
 246.5 236.775 l 1,9,-1
 246.5 121.074 l 1,10,-1
 16.598 292.374 l 1,11,-1
 246.5 447.896 l 1,6,-1
EndSplineSet
EndChar

StartChar: degree
Encoding: 258 176 99
Width: 560
Flags: W
HStem: 730 136<254.39 305.61 280 280>
VStem: 210 46<786.775 818.449> 305 45<786.572 819.3>
LayerCount: 2
Fore
SplineSet
265.5 802 m 0,0,1
 265.5 791.5 265.5 791.5 280.297 791.5 c 0,2,3
 295.5 791.5 295.5 791.5 295.5 803.001 c 0,4,5
 295.5 812.232 295.5 812.232 290.552 814.804 c 0,6,7
 284.155 818.13 284.155 818.13 280.414 818.13 c 0,8,9
 276.789 818.13 276.789 818.13 270.554 814.492 c 0,10,11
 265.5 811.544 265.5 811.544 265.5 802 c 0,0,1
225.697 741.387 m 0,12,13
 200.5 762.568 200.5 762.568 200.5 800.082 c 0,14,15
 200.5 837.749 200.5 837.749 225.966 856.85 c 0,16,17
 250.831 875.5 250.831 875.5 280 875.5 c 0,18,19
 309.532 875.5 309.532 875.5 334.37 854.051 c 0,20,21
 359.5 832.35 359.5 832.35 359.5 798.001 c 0,22,23
 359.5 763.653 359.5 763.653 334.371 741.95 c 0,24,25
 309.535 720.5 309.535 720.5 280.014 720.5 c 0,26,27
 250.546 720.5 250.546 720.5 225.697 741.387 c 0,12,13
EndSplineSet
EndChar

StartChar: plusminus
Encoding: 259 177 100
Width: 495
Flags: W
HStem: 127 91<54 442> 474 90<62 202 293 429> 687 20G<202 292>
VStem: 203 90<318 473 564 707>
LayerCount: 2
Fore
SplineSet
49 117.5 m 1,0,-1
 44.5 117.5 l 1,1,-1
 44.5 122 l 1,2,-1
 44.5 223 l 1,3,-1
 44.5 227.5 l 1,4,-1
 49 227.5 l 1,5,-1
 447 227.5 l 1,6,-1
 451.5 227.5 l 1,7,-1
 451.5 223 l 1,8,-1
 451.5 122 l 1,9,-1
 451.5 117.5 l 1,10,-1
 447 117.5 l 1,11,-1
 49 117.5 l 1,0,-1
302.5 313 m 1,12,-1
 302.5 308.5 l 1,13,-1
 298 308.5 l 1,14,-1
 198 308.5 l 1,15,-1
 193.5 308.5 l 1,16,-1
 193.5 313 l 1,17,-1
 193.5 463.5 l 1,18,-1
 57 463.5 l 1,19,-1
 52.5 463.5 l 1,20,-1
 52.5 468 l 1,21,-1
 52.5 566 l 1,22,-1
 52.5 570.5 l 1,23,-1
 57 570.5 l 1,24,-1
 192.5 570.5 l 1,25,-1
 192.5 712 l 1,26,-1
 192.5 716.5 l 1,27,-1
 197 716.5 l 1,28,-1
 297 716.5 l 1,29,-1
 301.5 716.5 l 1,30,-1
 301.5 712 l 1,31,-1
 301.5 573.5 l 1,32,-1
 434 573.5 l 1,33,-1
 438.5 573.5 l 1,34,-1
 438.5 569 l 1,35,-1
 438.5 469 l 1,36,-1
 438.5 464.5 l 1,37,-1
 434 464.5 l 1,38,-1
 302.5 464.5 l 1,39,-1
 302.5 313 l 1,12,-1
EndSplineSet
EndChar

StartChar: uni00B2
Encoding: 260 178 101
Width: 402
Flags: W
HStem: 525 46<243 380>
VStem: 151 229<525 571>
LayerCount: 2
Fore
SplineSet
225.055 789.152 m 2,0,-1
 223.454 783.22 l 1,1,-1
 218.281 786.536 l 1,2,-1
 170.118 817.41 l 1,3,-1
 166.87 819.492 l 1,4,-1
 168.432 823.02 l 2,5,6
 196.098 885.5 196.098 885.5 275 885.5 c 0,7,8
 329.143 885.5 329.143 885.5 354.637 857.974 c 0,9,10
 379.993 830.595 379.993 830.595 379.993 793.325 c 0,11,12
 379.993 740.062 379.993 740.062 336.657 679.379 c 2,13,-1
 262.066 580.5 l 1,14,-1
 385 580.5 l 1,15,-1
 389.5 580.5 l 1,16,-1
 389.5 576 l 1,17,-1
 389.5 520 l 1,18,-1
 389.5 515.5 l 1,19,-1
 385 515.5 l 1,20,-1
 140.858 515.5 l 1,21,-1
 131.73 515.5 l 1,22,-1
 137.289 522.74 l 1,23,-1
 295.25 728.481 l 2,24,25
 315.306 759.337 315.306 759.337 315.306 783.766 c 0,26,27
 315.306 816.113 315.306 816.113 282.824 823.753 c 0,28,29
 278.655 824.733 278.655 824.733 274.11 824.733 c 0,30,31
 234.654 824.733 234.654 824.733 225.055 789.152 c 2,0,-1
EndSplineSet
EndChar

StartChar: uni00B3
Encoding: 261 179 102
Width: 382
Flags: W
HStem: 440.342 22.1936<395.639 433.005> 526.594 20.176<405.162 426.347>
VStem: 362.288 112.733<453.456 506.166>
LayerCount: 2
Fore
SplineSet
232.757 582.317 m 2,0,-1
 233.658 582.316 l 2,1,2
 264.325 582.316 264.325 582.316 276.516 586.094 c 128,-1,3
 288.511 589.812 288.511 589.812 297.657 598.728 c 0,4,5
 315.172 615.804 315.172 615.804 315.172 647.322 c 0,6,7
 315.172 678.157 315.172 678.157 284.556 696.077 c 0,8,9
 252.766 714.685 252.766 714.685 207.656 714.685 c 2,10,-1
 198.646 714.685 l 1,11,-1
 189.607 714.685 l 1,12,-1
 195.055 721.898 l 1,13,-1
 281.911 836.866 l 1,14,-1
 162.3 836.866 l 1,15,-1
 157.8 836.866 l 1,16,-1
 157.8 841.366 l 1,17,-1
 157.8 890.604 l 1,18,-1
 157.8 895.104 l 1,19,-1
 162.3 895.104 l 1,20,-1
 378.022 895.104 l 1,21,-1
 386.819 895.104 l 1,22,-1
 381.671 887.971 l 1,23,-1
 285.963 755.339 l 1,24,25
 325.105 745.068 325.105 745.068 346.755 722.446 c 0,26,27
 370.5 697.635 370.5 697.635 370.5 645 c 0,28,29
 370.5 592.163 370.5 592.163 333.177 557.753 c 128,-1,30
 295.988 523.465 295.988 523.465 238.169 523.518 c 128,-1,31
 180.399 523.571 180.399 523.571 124.455 552.89 c 2,32,-1
 119.983 555.234 l 1,33,-1
 122.824 559.408 l 1,34,-1
 152.672 603.272 l 1,35,-1
 154.914 606.567 l 1,36,-1
 158.456 604.739 l 2,37,38
 201.779 582.375 201.779 582.375 232.757 582.317 c 2,0,-1
373.116 622.381 m 0,39,-1
EndSplineSet
EndChar

StartChar: acute
Encoding: 194 180 103
Width: 1000
Flags: W
HStem: 791 194<334 424>
VStem: 284 202<838 912>
LayerCount: 2
Fore
SplineSet
496.582 914.216 m 1,0,-1
 499.619 910.639 l 1,1,-1
 495.919 907.754 l 1,2,-1
 336.495 783.451 l 1,3,-1
 333.531 781.14 l 1,4,-1
 330.729 783.645 l 1,5,-1
 273.909 834.449 l 1,6,-1
 270.447 837.545 l 1,7,-1
 273.649 840.907 l 1,8,-1
 420.954 995.576 l 1,9,-1
 424.404 999.199 l 1,10,-1
 427.643 995.386 l 1,11,-1
 496.582 914.216 l 1,0,-1
EndSplineSet
EndChar

StartChar: uni00B9
Encoding: 262 185 104
Width: 284
Flags: W
VStem: 174 49<530 786>
LayerCount: 2
Fore
SplineSet
164.593 761.909 m 1,0,-1
 161.572 758.682 l 1,1,-1
 158.292 761.645 l 1,2,-1
 119.606 796.587 l 1,3,-1
 116.066 799.784 l 1,4,-1
 119.464 803.132 l 1,5,-1
 223.842 905.965 l 1,6,-1
 231.5 913.509 l 1,7,-1
 231.5 902.759 l 1,8,-1
 231.5 530.867 l 1,9,-1
 233.178 526.671 l 1,10,-1
 235.647 520.5 l 1,11,-1
 229 520.5 l 1,12,-1
 170 520.5 l 1,13,-1
 165.5 520.5 l 1,14,-1
 165.5 525 l 1,15,-1
 165.5 530.001 l 1,16,-1
 165.555 762.936 l 1,17,-1
 164.593 761.909 l 1,0,-1
EndSplineSet
EndChar

StartChar: guillemotright
Encoding: 187 187 105
Width: 491
Flags: W
HStem: 138 292<34 242>
VStem: 34 411<292 428>
LayerCount: 2
Fore
SplineSet
24.5 445.968 m 1,0,-1
 254.401 289.321 l 1,1,-1
 24.5 119.148 l 1,2,-1
 24.5 233.726 l 1,3,-1
 95.7056 287.586 l 1,4,-1
 24.5 335.969 l 1,5,-1
 24.5 445.968 l 1,0,-1
242.5 447.945 m 1,6,-1
 471.349 292.374 l 1,7,-1
 242.5 121.019 l 1,8,-1
 242.5 236.775 l 1,9,-1
 313.709 289.724 l 1,10,-1
 242.5 339.022 l 1,11,-1
 242.5 447.945 l 1,6,-1
EndSplineSet
EndChar

StartChar: questiondown
Encoding: 191 191 106
Width: 399
Flags: W
HStem: -3.05176e-05 77<162.529 294.973> 729 20G<253.665 268.335>
VStem: 47 82<109.929 220.683> 216 88<441.795 529>
LayerCount: 2
Fore
SplineSet
410.731 68.9977 m 1,0,1
 345.981 -9.50003 345.981 -9.50003 231 -9.50003 c 0,2,3
 148.223 -9.50003 148.223 -9.50003 92.8615 42.7014 c 128,-1,4
 37.5 94.9028 37.5 94.9028 37.5 181 c 0,5,6
 37.5 225.313 37.5 225.313 55.8084 260.901 c 128,-1,7
 74.1168 296.488 74.1168 296.488 117.128 341.559 c 2,8,-1
 159.128 385.559 l 2,9,10
 194.024 422.123 194.024 422.123 200.262 441.782 c 128,-1,11
 206.5 461.442 206.5 461.442 206.5 512 c 2,12,-1
 209.546 538.5 l 1,13,-1
 313.5 538.5 l 1,14,-1
 313.5 501 l 2,15,16
 313.5 440.784 313.5 440.784 297.531 408.376 c 128,-1,17
 281.563 375.968 281.563 375.968 240.975 332.55 c 2,18,-1
 197.978 285.553 l 2,19,20
 194.21 281.515 194.21 281.515 182.948 270.878 c 0,21,22
 138.5 228.896 138.5 228.896 138.5 191 c 0,23,24
 138.5 86.5 138.5 86.5 244 86.5 c 0,25,26
 298.426 86.5 298.426 86.5 323.312 115.711 c 2,27,-1
 358.557 154.713 l 1,28,-1
 410.731 68.9977 l 1,0,1
328.5 689.5 m 128,-1,30
 328.5 657.692 328.5 657.692 307.536 639.346 c 128,-1,31
 286.573 621 286.573 621 261 621 c 128,-1,32
 235.612 621 235.612 621 214.556 638.247 c 128,-1,33
 193.5 655.495 193.5 655.495 193.5 687.839 c 128,-1,34
 193.5 720.182 193.5 720.182 214.404 739.341 c 128,-1,35
 235.308 758.5 235.308 758.5 261 758.5 c 128,-1,36
 286.615 758.5 286.615 758.5 307.557 739.881 c 128,-1,29
 328.5 721.263 328.5 721.263 328.5 689.5 c 128,-1,30
EndSplineSet
EndChar

StartChar: multiply
Encoding: 281 215 125
Width: 495
Flags: W
HStem: 187 338<143 355>
VStem: 79 340<251 461>
LayerCount: 2
Fore
SplineSet
429.254 254.212 m 1,0,-1
 432.466 251.031 l 1,1,-1
 429.269 247.834 l 1,2,-1
 358.198 176.763 l 1,3,-1
 355.03 173.596 l 1,4,-1
 351.849 176.749 l 1,5,-1
 245.099 282.528 l 1,6,-1
 150.25 185.743 l 1,7,-1
 147.068 182.497 l 1,8,-1
 143.854 185.711 l 1,9,-1
 72.7469 256.818 l 1,10,-1
 69.5649 260 l 1,11,-1
 72.7469 263.182 l 1,12,-1
 170.399 360.834 l 1,13,-1
 68.7383 457.654 l 1,14,-1
 65.3992 460.834 l 1,15,-1
 68.6597 464.095 l 1,16,-1
 139.801 535.236 l 1,17,-1
 142.967 538.402 l 1,18,-1
 146.149 535.252 l 1,19,-1
 244.932 437.437 l 1,20,-1
 337.784 531.254 l 1,21,-1
 340.966 534.469 l 1,22,-1
 344.164 531.271 l 1,23,-1
 415.235 460.2 l 1,24,-1
 418.401 457.034 l 1,25,-1
 415.251 453.853 l 1,26,-1
 322.431 360.065 l 1,27,-1
 429.254 254.212 l 1,0,-1
EndSplineSet
EndChar

StartChar: dotlessi
Encoding: 245 305 158
Width: 207
Flags: W
HStem: 0 21G<61 151> 413 20G<59 151>
VStem: 59 92<0 433>
LayerCount: 2
Fore
SplineSet
156 442.5 m 1,0,-1
 160.5 442.5 l 1,1,-1
 160.5 438 l 1,2,-1
 160.5 433 l 1,3,-1
 160.5 -3.0598e-07 l 1,4,-1
 160.5 -5 l 1,5,-1
 160.5 -9.5 l 1,6,-1
 156 -9.5 l 1,7,-1
 151 -9.5 l 1,8,-1
 61 -9.5 l 1,9,-1
 56.023 -9.5 l 1,10,-1
 51.5437 -9.5 l 1,11,-1
 51.523 -5.02071 l 1,12,-1
 51.5001 -0.0438398 l 1,13,-1
 49.5001 432.956 l 1,14,-1
 49.4769 437.979 l 1,15,-1
 49.4561 442.5 l 1,16,-1
 53.9769 442.5 l 1,17,-1
 59 442.5 l 1,18,-1
 151 442.5 l 1,19,-1
 156 442.5 l 1,0,-1
EndSplineSet
EndChar

StartChar: uni030A
Encoding: 322 778 167
Width: 154
Flags: W
HStem: 719.5 135.5<50.3903 101.61 76 76>
VStem: 6 46<773.744 808.256> 101 45<774.595 808.3>
LayerCount: 2
Fore
SplineSet
61.5 791 m 128,-1,1
 61.5 780.655 61.5 780.655 68.5219 776.854 c 0,2,3
 72.1886 774.87 72.1886 774.87 75.6773 774.87 c 0,4,5
 79.5444 774.87 79.5444 774.87 83.8544 777.286 c 0,6,7
 91.5 781.573 91.5 781.573 91.5 792 c 0,8,9
 91.5 801.234 91.5 801.234 84.1184 805.071 c 0,10,11
 79.931 807.248 79.931 807.248 76.1262 807.248 c 128,-1,12
 72.4067 807.248 72.4067 807.248 68.5219 805.146 c 0,13,0
 61.5 801.345 61.5 801.345 61.5 791 c 128,-1,1
75.9836 864.5 m 0,14,15
 105.532 864.5 105.532 864.5 130.209 843.19 c 0,16,17
 155.5 821.35 155.5 821.35 155.5 788.013 c 0,18,19
 155.5 752.609 155.5 752.609 130.162 731.019 c 0,20,21
 105.494 710 105.494 710 76 710 c 128,-1,22
 46.575 710 46.575 710 21.9349 730.438 c 0,23,24
 -3.5 751.536 -3.5 751.536 -3.5 790 c 0,25,26
 -3.5 827.837 -3.5 827.837 22.4122 846.683 c 0,27,28
 46.909 864.5 46.909 864.5 75.9836 864.5 c 0,14,15
EndSplineSet
EndChar

StartChar: quoteleft
Encoding: 96 8216 168
Width: 187
Flags: W
HStem: 567.5 178.5<89 113>
VStem: 40 61<616 696>
LayerCount: 2
Fore
SplineSet
124.697 580.3 m 0,0,1
 110.333 563.625 110.333 563.625 91.5696 558.354 c 0,2,3
 85.9433 556.773 85.9433 556.773 80.2359 556.773 c 0,4,5
 65.4096 556.773 65.4096 556.773 50.9123 567.317 c 0,6,7
 30.5 582.162 30.5 582.162 30.5 616 c 0,8,9
 30.5 663.651 30.5 663.651 54.8727 703.919 c 0,10,11
 79.6815 744.908 79.6815 744.908 109.996 755.012 c 2,12,-1
 127.127 760.723 l 1,13,-1
 142.545 765.863 l 1,14,-1
 131.966 753.525 l 1,15,-1
 120.212 739.816 l 2,16,17
 110.5 728.49 110.5 728.49 110.5 696 c 0,18,19
 110.5 664.614 110.5 664.614 118.933 651.672 c 1,20,21
 135.781 638.654 135.781 638.654 136.495 620.573 c 0,22,23
 136.533 619.599 136.533 619.599 136.786 617.197 c 0,24,25
 137.08 614.41 137.08 614.41 137.08 612.819 c 0,26,27
 137.08 594.674 137.08 594.674 124.697 580.3 c 0,0,1
EndSplineSet
EndChar

StartChar: quoteright
Encoding: 39 8217 169
Width: 187
Flags: W
HStem: 558 179.5<80 89.5>
LayerCount: 2
Fore
SplineSet
86.3196 746.451 m 0,0,1
 93.0264 748.834 93.0264 748.834 99.8835 748.834 c 0,2,3
 113.272 748.834 113.272 748.834 126.379 739.83 c 0,4,5
 146.044 726.321 146.044 726.321 151.376 694.521 c 0,6,7
 152.809 685.975 152.809 685.975 152.809 673.992 c 0,8,9
 152.809 637.89 152.809 637.89 134.868 604.503 c 0,10,11
 111.821 561.615 111.821 561.615 83.8239 549.304 c 2,12,-1
 72.0948 544.147 l 1,13,-1
 61.5388 539.505 l 1,14,-1
 66.1609 550.07 l 1,15,-1
 71.2965 561.808 l 2,16,17
 77.5 575.987 77.5 575.987 77.5 611 c 0,18,19
 77.5 642.823 77.5 642.823 66.3492 650.018 c 0,20,21
 46.5031 662.824 46.5031 662.824 46.5 681.999 c 0,22,23
 46.5 703.563 46.5 703.563 56.7852 721.271 c 0,24,25
 67.5342 739.777 67.5342 739.777 86.3196 746.451 c 0,0,1
EndSplineSet
EndChar

StartChar: quotedblleft
Encoding: 170 8220 170
Width: 292
Flags: W
HStem: 567.5 180.5<89 235>
VStem: 40 61<616 696> 162 61.5<618 696>
LayerCount: 2
Fore
SplineSet
213.741 560.768 m 0,0,1
 208.509 559.498 208.509 559.498 203.248 559.498 c 0,2,3
 187.787 559.498 187.787 559.498 172.912 570.317 c 0,4,5
 152.5 585.162 152.5 585.162 152.5 618 c 0,6,7
 152.5 665.65 152.5 665.65 176.873 705.919 c 0,8,9
 201.682 746.908 201.682 746.908 231.996 757.012 c 2,10,-1
 247.053 762.032 l 1,11,-1
 260.605 766.55 l 1,12,-1
 252.089 755.08 l 1,13,-1
 242.627 742.336 l 2,14,15
 233 729.37 233 729.37 233 696.032 c 0,16,17
 233 664.541 233 664.541 240.436 655.089 c 1,18,19
 259.5 641.445 259.5 641.445 259.5 622 c 0,20,21
 259.5 600.895 259.5 600.895 246.661 583.383 c 0,22,23
 233.618 565.594 233.618 565.594 213.741 560.768 c 0,0,1
124.697 580.3 m 0,24,25
 110.333 563.625 110.333 563.625 91.5696 558.354 c 0,26,27
 85.9433 556.773 85.9433 556.773 80.2359 556.773 c 0,28,29
 65.4096 556.773 65.4096 556.773 50.9123 567.317 c 0,30,31
 30.5 582.162 30.5 582.162 30.5 616 c 0,32,33
 30.5 663.651 30.5 663.651 54.8727 703.919 c 0,34,35
 79.6815 744.908 79.6815 744.908 109.996 755.012 c 2,36,-1
 127.127 760.723 l 1,37,-1
 142.545 765.863 l 1,38,-1
 131.966 753.525 l 1,39,-1
 120.212 739.816 l 2,40,41
 110.5 728.49 110.5 728.49 110.5 696 c 0,42,43
 110.5 664.614 110.5 664.614 118.933 651.672 c 1,44,45
 135.781 638.654 135.781 638.654 136.495 620.573 c 0,46,47
 136.533 619.599 136.533 619.599 136.786 617.197 c 0,48,49
 137.08 614.41 137.08 614.41 137.08 612.819 c 0,50,51
 137.08 594.674 137.08 594.674 124.697 580.3 c 0,24,25
EndSplineSet
EndChar

StartChar: quotedblright
Encoding: 186 8221 171
Width: 358
Flags: W
HStem: 558 182<80 224.5>
LayerCount: 2
Fore
SplineSet
190.17 724.381 m 0,0,1
 203.001 743.051 203.001 743.051 221.585 749.042 c 0,2,3
 228.004 751.111 228.004 751.111 234.546 751.111 c 0,4,5
 247.997 751.111 247.997 751.111 261.21 742.444 c 0,6,7
 281.056 729.426 281.056 729.426 286.378 697.51 c 0,8,9
 287.809 688.927 287.809 688.927 287.809 676.626 c 0,10,11
 287.809 639.966 287.809 639.966 269.845 606.959 c 0,12,13
 246.882 564.769 246.882 564.769 219.112 551.436 c 2,14,-1
 206.968 545.605 l 1,15,-1
 196.038 540.357 l 1,16,-1
 200.897 551.466 l 1,17,-1
 206.296 563.808 l 2,18,19
 212.5 577.987 212.5 577.987 212.5 613 c 0,20,21
 212.5 645.103 212.5 645.103 200.993 653.289 c 0,22,23
 182.726 666.284 182.726 666.284 181.516 684.13 c 0,24,25
 181.435 685.328 181.435 685.328 180.97 688.561 c 0,26,27
 180.433 692.293 180.433 692.293 180.433 694.458 c 0,28,29
 180.433 710.211 180.433 710.211 190.17 724.381 c 0,0,1
86.3196 746.451 m 0,30,31
 93.0264 748.834 93.0264 748.834 99.8835 748.834 c 0,32,33
 113.272 748.834 113.272 748.834 126.379 739.83 c 0,34,35
 146.044 726.321 146.044 726.321 151.376 694.521 c 0,36,37
 152.809 685.975 152.809 685.975 152.809 673.992 c 0,38,39
 152.809 637.89 152.809 637.89 134.868 604.503 c 0,40,41
 111.821 561.615 111.821 561.615 83.8239 549.304 c 2,42,-1
 72.0948 544.147 l 1,43,-1
 61.5388 539.505 l 1,44,-1
 66.1609 550.07 l 1,45,-1
 71.2965 561.808 l 2,46,47
 77.5 575.987 77.5 575.987 77.5 611 c 0,48,49
 77.5 642.823 77.5 642.823 66.3492 650.018 c 0,50,51
 46.5031 662.824 46.5031 662.824 46.5 681.999 c 0,52,53
 46.5 703.563 46.5 703.563 56.7852 721.271 c 0,54,55
 67.5342 739.777 67.5342 739.777 86.3196 746.451 c 0,30,31
EndSplineSet
EndChar

StartChar: uniFB00
Encoding: 323 64256 172
Width: 542
Flags: W
LayerCount: 2
Fore
SplineSet
458.208 534.402 m 1,0,1
 440.548 547.198 440.548 547.198 413.81 542.386 c 128,-1,2
 387.073 537.573 387.073 537.573 379.168 519.975 c 128,-1,3
 371.263 502.378 371.263 502.378 371.008 420 c 1,4,-1
 439 420 l 1,5,-1
 439 318 l 1,6,-1
 372 318 l 1,7,-1
 372 -10 l 1,8,-1
 265 -10 l 1,9,-1
 265 320 l 1,10,-1
 231 320 l 1,11,-1
 231 420 l 1,12,-1
 269.019 420 l 1,13,14
 269.487 482.391 269.487 482.391 281.754 527.767 c 1,15,16
 271.514 554 271.514 554 235 554 c 2,17,-1
 234 554 l 2,18,19
 178.04 554 178.04 554 177.019 420 c 1,20,-1
 222 420 l 1,21,-1
 222 320 l 1,22,-1
 175 320 l 1,23,-1
 175 -10 l 1,24,-1
 68 -10 l 1,25,-1
 68 322 l 1,26,-1
 19 322 l 1,27,-1
 19 420 l 1,28,-1
 72.0181 420 l 1,29,30
 73.7092 652 73.7092 652 232 652 c 0,31,32
 293.024 652 293.024 652 326.38 614.312 c 1,33,34
 366.914 652 366.914 652 427 652 c 0,35,36
 452.02 652 452.02 652 476.756 641.474 c 0,37,38
 503.056 630.305 503.056 630.305 515.013 607.593 c 1,39,-1
 458.208 534.402 l 1,0,1
EndSplineSet
LCarets2: 1 0 
Ligature2: "'liga' Standard Ligatures in Latin lookup 0 subtable" f f
EndChar

StartChar: germandbls
Encoding: 251 223 173
Width: 413
Flags: W
HStem: 344.01 79.99<6.07031 62.1396> 344.01 75.67<149.67 301.35>
VStem: 62.1396 84.1904<0 344.01> 66.62 83.05<419.68 487.091>
LayerCount: 2
Fore
SplineSet
296.847 108.879 m 0,0,1
 296.847 179.476 296.847 179.476 225.865 243.172 c 1,2,-1
 284.037 334.51 l 1,3,-1
 159.83 334.51 l 1,4,-1
 159.83 -9.5 l 1,5,-1
 52.6396 -9.5 l 1,6,-1
 52.6396 334.51 l 1,7,-1
 -3.43002 334.51 l 1,8,-1
 -3.43002 433.5 l 1,9,-1
 57.1646 433.5 l 1,10,11
 57.1646 651.5 57.1646 651.5 214 651.5 c 2,12,-1
 215 651.5 l 1,13,14
 291.48 651.5 291.48 651.5 322.317 617.144 c 1,15,-1
 264.91 534.999 l 1,16,17
 243.68 545.949 243.68 545.949 214.67 545.949 c 0,18,19
 163.208 545.949 163.208 545.949 163.208 429.18 c 1,20,-1
 406.66 429.18 l 1,21,-1
 406.66 341.276 l 1,22,-1
 346.945 246.159 l 1,23,24
 402.162 190.869 402.162 190.869 402.162 95.0128 c 128,-1,25
 402.162 -0.843338 402.162 -0.843338 308.524 -68.4102 c 1,26,-1
 307.055 -68.4102 l 1,27,-1
 188.859 -68.4102 l 1,28,-1
 175.232 -68.4102 l 1,29,-1
 198.342 -51.2785 l 2,30,31
 296.847 21.7436 296.847 21.7436 296.847 108.879 c 0,0,1
EndSplineSet
EndChar

StartChar: longs
Encoding: 324 383 174
Width: 274
Flags: W
HStem: 0 21G<45 125>
VStem: 45 80<0 487.471>
LayerCount: 2
Fore
SplineSet
189.989 651.5 m 0,0,1
 264.3 651.5 264.3 651.5 278.105 621.728 c 1,2,-1
 222.287 534.511 l 1,3,-1
 199.674 546.482 l 1,4,5
 170.248 546.482 170.248 546.482 152.374 520.971 c 128,-1,6
 134.5 495.461 134.5 495.461 134.5 419.5 c 2,7,-1
 134.5 -9.5 l 1,8,-1
 31.5 -9.5 l 1,9,-1
 31.5 419.5 l 2,10,11
 31.5 549.894 31.5 549.894 98.6309 612.049 c 0,12,13
 141.24 651.5 141.24 651.5 189.989 651.5 c 0,0,1
EndSplineSet
EndChar

StartChar: cent
Encoding: 162 162 175
Width: 588
Flags: W
VStem: 130.4 76.8<321.6 400.64> 296.8 61.6<93.6 172.8 244.8 477.6 548.8 610.4>
LayerCount: 2
Fore
SplineSet
367.9 558.086 m 1,0,1
 404.853 558.086 404.853 558.086 455.1 531.745 c 1,2,-1
 455.1 425.462 l 1,3,-1
 447.573 432.305 l 2,4,5
 409.497 468.691 409.497 468.691 367.9 468.691 c 1,6,-1
 367.9 257.096 l 1,7,8
 416.757 271.347 416.757 271.347 455.1 300.486 c 1,9,-1
 455.1 195.715 l 1,10,11
 412.888 163.467 412.888 163.467 367.9 163.467 c 1,12,-1
 367.9 84.1 l 1,13,-1
 287.3 84.1 l 1,14,-1
 287.3 165.019 l 1,15,16
 216.474 165.019 216.474 165.019 168.687 221.947 c 128,-1,17
 120.9 278.874 120.9 278.874 120.9 358.198 c 128,-1,18
 120.9 437.585 120.9 437.585 167.327 489.402 c 128,-1,19
 213.753 541.22 213.753 541.22 287.3 555.186 c 1,20,-1
 287.3 619.9 l 1,21,-1
 367.9 619.9 l 1,22,-1
 367.9 558.086 l 1,0,1
287.3 465.344 m 1,23,24
 260.436 456.559 260.436 456.559 238.568 429.974 c 128,-1,25
 216.7 403.388 216.7 403.388 216.7 360.778 c 128,-1,26
 216.7 318.142 216.7 318.142 237.614 292.176 c 128,-1,27
 258.528 266.21 258.528 266.21 287.3 257.061 c 1,28,-1
 287.3 465.344 l 1,23,24
EndSplineSet
EndChar

StartChar: Euro
Encoding: 325 8364 176
Width: 524
Flags: W
HStem: 42.22 78.12<208.753 380.99> 263.13 70.17<12.54 63.91 143.4 359.98> 391.9 70.07<19.4 69.7 146.05 382.42> 595.74 83.08<200.351 374.528>
VStem: 69.7 68.41<333.3 391.9>
LayerCount: 2
Fore
SplineSet
475.71 84.9557 m 1,0,1
 405.357 32.72 405.357 32.72 306.379 32.72 c 0,2,3
 126.046 32.72 126.046 32.72 64.9649 253.63 c 1,4,-1
 -19.3428 253.63 l 1,5,-1
 5.31009 342.8 l 1,6,-1
 57.8087 342.8 l 1,7,8
 60.1742 353.542 60.1742 353.542 60.1742 382.4 c 1,9,-1
 -12.4876 382.4 l 1,10,-1
 12.1728 471.47 l 1,11,-1
 62.2312 471.47 l 1,12,13
 105.419 688.32 105.419 688.32 310.1 688.32 c 0,14,15
 391.119 688.32 391.119 688.32 469.86 624.018 c 1,16,-1
 469.86 499.542 l 1,17,-1
 453.298 517.945 l 2,18,19
 391.842 586.24 391.842 586.24 318.04 586.24 c 0,20,21
 195.626 586.24 195.626 586.24 158.757 471.47 c 1,22,-1
 425.301 471.47 l 1,23,-1
 388.793 382.4 l 1,24,-1
 147.61 382.4 l 1,25,-1
 147.61 342.8 l 1,26,-1
 402.734 342.8 l 1,27,-1
 366.366 253.63 l 1,28,-1
 156.985 253.63 l 1,29,30
 204.827 129.84 204.827 129.84 312.74 129.84 c 0,31,32
 387.836 129.84 387.836 129.84 459.866 194.452 c 2,33,-1
 475.71 208.664 l 1,34,-1
 475.71 84.9557 l 1,0,1
EndSplineSet
EndChar

StartChar: fi
Encoding: 174 64257 177
Width: 1000
Flags: W
HStem: 344.01 80.01<31.12 81.34 164.72 303.67> 551.17 83.83<207.964 296.923>
VStem: 81.34 80.38<3.05176e-05 344.01> 85.35 79.37<424.02 488.959> 304.57 79.07<3.05176e-05 344.01 476.47 541.21>
LayerCount: 2
Fore
SplineSet
403.14 476.47 m 2,0,-1
 403.14 466.97 l 1,1,-1
 305.07 466.97 l 1,2,-1
 305.07 476.47 l 2,3,4
 305.07 541.67 305.07 541.67 252.25 541.67 c 0,5,6
 200.912 541.67 200.912 541.67 190.587 518.674 c 128,-1,7
 180.262 495.678 180.262 495.678 180.262 419.52 c 1,8,-1
 405.14 419.52 l 1,9,-1
 405.14 -9.5 l 1,10,-1
 300.17 -9.5 l 1,11,-1
 300.17 320.51 l 1,12,-1
 177.22 320.51 l 1,13,-1
 177.22 -9.5 l 1,14,-1
 71.84 -9.49997 l 1,15,-1
 71.8398 322.49 l 1,16,-1
 21.6201 322.49 l 1,17,-1
 21.6201 419.52 l 1,18,-1
 75.8936 419.52 l 1,19,20
 75.8936 539.425 75.8936 539.425 124.597 591.963 c 128,-1,21
 173.301 644.5 173.301 644.5 250 644.5 c 0,22,23
 403.14 644.5 403.14 644.5 403.14 476.47 c 2,0,-1
EndSplineSet
LCarets2: 1 0 
Ligature2: "'liga' Standard Ligatures in Latin lookup 0 subtable" f i
EndChar

StartChar: fl
Encoding: 175 64258 178
Width: 477
Flags: W
HStem: 0 21G<81.34 161.72 333.41 413.79> 344.01 80.01<31.12 81.34 164.71 268.15> 567.76 74.51<221.73 333.41>
VStem: 81.34 80.38<0 344.01> 85.35 79.36<424.02 502.254> 333.41 80.38<0 567.76>
LayerCount: 2
Fore
SplineSet
264.572 650.76 m 2,0,-1
 435.29 650.76 l 1,1,-1
 435.29 -9.5 l 1,2,-1
 328.91 -9.5 l 1,3,-1
 328.91 558.26 l 1,4,-1
 259.77 558.26 l 2,5,6
 214.907 558.26 214.907 558.26 197.074 535.37 c 128,-1,7
 179.24 512.48 179.24 512.48 179.24 419.52 c 5,8,-1
 272.65 419.52 l 5,9,-1
 272.65 320.51 l 5,10,-1
 176.22 320.51 l 5,11,-1
 176.22 -9.5 l 1,12,-1
 71.84 -9.5 l 1,13,-1
 71.8398 322.49 l 5,14,-1
 21.6201 322.49 l 5,15,-1
 21.6201 419.52 l 5,16,-1
 75.8936 419.52 l 5,17,18
 75.8936 525.002 75.8936 525.002 121.641 584.503 c 0,19,20
 172.579 650.76 172.579 650.76 264.572 650.76 c 2,0,-1
EndSplineSet
LCarets2: 1 0 
Ligature2: "'liga' Standard Ligatures in Latin lookup 0 subtable" f l
EndChar

StartChar: uniFB06
Encoding: 326 64262 179
Width: 429
Flags: W
HStem: 0 21G<262.53 341.99> 339.02 85<216.81 262.53 343.21 393.66> 570.15 71.54<174.643 266.51>
VStem: 44.77 78.67<-3.05176e-05 474.112> 262.53 79.46<0 339.02> 266.51 76.7<424.02 570.15>
LayerCount: 2
Fore
SplineSet
204.25 651.19 m 1,0,-1
 360.71 651.19 l 1,1,-1
 360.71 433.52 l 1,2,-1
 411.16 433.52 l 1,3,-1
 411.16 329.52 l 1,4,-1
 359.49 329.52 l 1,5,-1
 359.49 -9.5 l 1,6,-1
 253.03 -9.5 l 1,7,-1
 253.03 330.48 l 1,8,-1
 207.31 330.48 l 1,9,-1
 207.31 433.52 l 1,10,-1
 257.01 433.52 l 1,11,-1
 257.01 560.65 l 1,12,-1
 216.23 560.65 l 2,13,14
 173.987 560.65 173.987 560.65 149.261 521.55 c 0,15,16
 132.94 495.741 132.94 495.741 132.94 419.5 c 1,17,-1
 132.94 -9.50003 l 1,18,-1
 24.2695 -9.5 l 5,19,-1
 24.2695 419.5 l 6,20,21
 24.2695 470.981 24.2695 470.981 41.8643 525.256 c 4,22,23
 59.0107 579.526 59.0107 579.526 86.5352 604.386 c 0,24,25
 135.632 651.19 135.632 651.19 204.25 651.19 c 1,0,-1
EndSplineSet
LCarets2: 1 0 
Ligature2: "'dlig' optionale Ligaturen in Latin lookup 1 subtable" s t
EndChar

StartChar: emdash
Encoding: 208 8212 180
Width: 734
Flags: W
HStem: 222 81<49 438>
LayerCount: 2
Fore
SplineSet
691.5 212.5 m 5,0,-1
 39.5 212.5 l 1,1,-1
 39.5 312.5 l 1,2,-1
 691.5 312.5 l 5,3,-1
 691.5 212.5 l 5,0,-1
EndSplineSet
EndChar

StartChar: endash
Encoding: 177 8211 181
Width: 470
Flags: W
HStem: 222 81<49 438>
LayerCount: 2
Fore
SplineSet
447.5 212.5 m 1,0,-1
 39.5 212.5 l 1,1,-1
 39.5 312.5 l 1,2,-1
 447.5 312.5 l 1,3,-1
 447.5 212.5 l 1,0,-1
EndSplineSet
EndChar
